<?xml version="1.0" standalone="no"?><!DOCTYPE svg PUBLIC "-//W3C//DTD SVG 1.1//EN" "http://www.w3.org/Graphics/SVG/1.1/DTD/svg11.dtd"><svg t="1641964534544" class="icon" viewBox="0 0 1274 1024" version="1.1" xmlns="http://www.w3.org/2000/svg" p-id="5706" width="79.625" height="64" xmlns:xlink="http://www.w3.org/1999/xlink"><defs><style type="text/css"></style></defs><path d="M786.240815 235.343896a9.257476 9.257476 0 0 0 4.041725 3.060164l76.157655 49.770961a9.103505 9.103505 0 0 0 12.895028-2.809961 9.372954 9.372954 0 0 0-2.732976-12.856536l-66.342035-43.265708 50.290611-37.106889a9.680895 9.680895 0 0 0 2.155587-13.260709 9.045766 9.045766 0 0 0-12.818043-2.155586l-61.626689 45.421295c-0.481158 0.36568-0.750606 0.866084-1.135533 1.289502-0.36568 0.384926-0.808345 0.654375-1.097039 1.116287-0.038493 0.076985-0.038493 0.15397-0.096232 0.230955-0.36568 0.596636-0.51965 1.25101-0.750606 1.905385-0.15397 0.481158-0.423419 0.923823-0.500404 1.424227a9.75788 9.75788 0 0 0 1.558951 7.236613zM543.929754 284.42199l76.90826-51.522375a9.353707 9.353707 0 0 0 4.003233-5.947111c0.173217-0.866084 0.096232-1.732168 0.038493-2.598252a9.045766 9.045766 0 0 0-3.59906-7.583046l-62.14634-44.016315a9.411446 9.411446 0 0 0-12.952768 2.097848 9.122752 9.122752 0 0 0 2.117095 12.779551l51.81107 36.644977-66.130326 44.305009a9.334461 9.334461 0 0 0-4.003233 5.966357 9.642402 9.642402 0 0 0 1.347242 7.121135c1.732168 2.655991 4.599868 4.253435 7.698525 4.311174v0.057739a8.853303 8.853303 0 0 0 4.907809-1.616691zM232.620666 334.212198c6.813194 3.907001 15.18534 3.907001 21.998534 0a21.940795 21.940795 0 1 0-21.921548-37.992219c-6.813194 3.907001-11.00889 11.162861-11.00889 18.99611h-0.057739c-0.019246 7.833249 4.17645 15.089108 10.989643 18.996109zM322.654911 290.080406a21.979288 21.979288 0 0 0 22.056273-21.940795 21.921549 21.921549 0 0 0-22.056273-21.883056 21.979288 21.979288 0 0 0-21.940795 21.883056c0 12.086684 9.815619 21.902302 21.940795 21.940795zM175.690077 343.180979a22.01778 22.01778 0 0 0-33.007424 18.99611h-0.057739a22.01778 22.01778 0 0 0 33.007424 18.996109 21.940795 21.940795 0 0 0 11.066629-18.996109 21.979288 21.979288 0 0 0-11.00889-18.99611z" fill="#8a8a8a" p-id="5707"></path><path d="M1092.44963 836.752636h-67.015656a46.556827 46.556827 0 0 0 24.500554-40.936904V171.580866h-5.177258L889.324059 15.012123V12.952768h-2.040109l-12.875782-12.952768H396.387531a46.576074 46.576074 0 0 0-46.383611 46.710798v34.566375L45.469534 245.486702c-8.622348 4.619115-15.069862 12.529349-17.918316 21.960042-2.848454 9.430693-1.847646 19.631238 2.752223 28.33057L308.566611 822.837553c3.07941 5.831632 7.621539 10.508486 12.952768 13.895837h-144.154873a9.353707 9.353707 0 0 0 0 18.726661h914.969646a9.526924 9.526924 0 0 0 9.469185-9.372954 9.372954 9.372954 0 0 0-9.353707-9.334461zM889.324059 32.487774L1027.416344 171.580866h-119.654319c-4.888563 0.019246-9.584663-1.905385-13.048999-5.311981s-5.408214-8.044958-5.388967-12.875783V32.487774zM352.582926 827.264204a23.672963 23.672963 0 0 1-11.58628 2.983179 24.404323 24.404323 0 0 1-21.690593-13.260709L41.100621 289.926435a25.251161 25.251161 0 0 1-1.789907-18.919124c1.866892-6.332036 6.178066-11.624772 11.95196-14.684935l298.760492-161.072381v246.121831l-155.606428 83.27879a20.978479 20.978479 0 0 0-8.468377 28.349816l0.115478 0.250202c5.523691 10.142806 18.226257 13.934329 28.426802 8.50687l135.513279-72.597087v101.139367l-82.047026 43.939329a20.978479 20.978479 0 0 0-8.526116 28.349817l0.115478 0.250202c5.523691 10.142806 18.226257 13.934329 28.426802 8.506869l62.030862-33.219133v64.609867l-35.086026 18.7844a20.978479 20.978479 0 0 0-8.468377 28.349817l0.115478 0.250202c5.523691 10.142806 18.226257 13.934329 28.426802 8.50687l14.992877-8.025712v145.251912c0 10.469993 3.541321 20.016164 9.315214 27.81092l-6.716962 3.59906z m8.44913 9.488432l1.212518-0.654375v-8.911042c3.502829 3.868509 7.660032 7.063396 12.279147 9.565417h-13.491665z m35.297736-6.639977c-18.822893 0-34.065971-15.358557-34.065972-34.316174V46.576074c0-9.103505 3.59906-17.860577 10.008082-24.288845a33.912001 33.912001 0 0 1 24.134875-10.027329h472.862626l7.621539 7.679279v133.434677a30.640128 30.640128 0 0 0 30.774852 30.370679h130.124311v612.05195c0 9.103505-3.59906 17.841331-9.988835 24.269599s-15.050616 10.046575-24.096382 10.046575H396.329792zM155.058031 836.752636H61.232263a9.122752 9.122752 0 0 0-6.062588 2.386543 9.199737 9.199737 0 0 0-8.891796-7.217367H9.363454a9.334461 9.334461 0 0 0 0 18.726661h36.914425a9.257476 9.257476 0 0 0 6.043342-2.367296 9.084259 9.084259 0 0 0 2.309557 4.445898 9.353707 9.353707 0 0 0 6.601485 2.732976h93.806522a9.315215 9.315215 0 0 0 6.601485-15.974439 9.238229 9.238229 0 0 0-6.582239-2.732976z" fill="#8a8a8a" p-id="5708"></path><path d="M915.595274 449.054938H560.654799a21.190189 21.190189 0 0 0-21.190189 21.228682v0.250202a21.267174 21.267174 0 0 0 21.170942 21.228682H915.595274a21.113204 21.113204 0 0 0 21.170943-21.228682V470.28362a21.190189 21.190189 0 0 0-21.170943-21.228682zM702.307651 376.900517c24.673771 0 44.670689-23.730702 44.670689-52.946603s-19.996918-52.946603-44.670689-52.946603c-24.673771 0-44.593704 23.730702-44.593704 52.946603s19.919932 52.946603 44.593704 52.946603z m0-87.282022c14.011315 0 26.040259 15.724236 26.040259 34.219941 0 18.476459-11.951959 34.219942-26.040259 34.219942-14.069054 0-26.040259-15.724236-26.04026-34.219942 0-18.495705 11.971206-34.219942 26.04026-34.219941zM490.136314 590.515328a22.190997 22.190997 0 0 0-22.190998 22.229489c0 12.279147 9.931097 22.22949 22.171751 22.22949s22.171751-9.950343 22.171751-22.22949-9.91185-22.22949-22.152504-22.229489zM490.136314 732.861047a22.248736 22.248736 0 1 0-8.487624 42.765304c8.29516 3.44509 17.822084 1.539705 24.173367-4.811578a22.248736 22.248736 0 0 0-15.685743-37.953726zM915.595274 591.400658H560.654799a21.190189 21.190189 0 0 0-21.190189 21.228681v0.250202a21.267174 21.267174 0 0 0 21.170942 21.228682H915.595274a21.113204 21.113204 0 0 0 21.170943-21.228682v-0.250202a21.267174 21.267174 0 0 0-21.170943-21.228681zM915.595274 733.727131H560.654799a21.113204 21.113204 0 0 0-21.170943 21.228681v0.250202a21.267174 21.267174 0 0 0 21.170943 21.228682H915.595274a21.113204 21.113204 0 0 0 21.170943-21.228682v-0.250202a21.267174 21.267174 0 0 0-21.170943-21.228681z" fill="#8a8a8a" p-id="5709"></path><path d="M490.136314 470.418344m-22.22949 0a22.22949 22.22949 0 1 0 44.458979 0 22.22949 22.22949 0 1 0-44.458979 0Z" fill="#8a8a8a" p-id="5710"></path><path d="M1035.826982 38.415638h4.291927v12.048191a6.293544 6.293544 0 1 0 12.587088 0v-12.048191h13.953576a6.255051 6.255051 0 1 0 0-12.510103h-13.953576V19.246311a6.274298 6.274298 0 1 0-12.587088 0v6.678471h-4.291927a6.235805 6.235805 0 0 0 0 12.490856zM489.886111 1005.234846h-30.83259c-5.158011 0-9.315215 4.195696-9.315215 9.372954s4.17645 9.372954 9.315215 9.372954h30.83259c5.158011 0 9.315215-4.195696 9.315215-9.372954s-4.17645-9.372954-9.315215-9.372954zM813.782287 1005.234846h-17.283188c-5.158011 0-9.315215 4.195696-9.315215 9.372954s4.17645 9.372954 9.315215 9.372954h17.283188c5.158011 0 9.315215-4.195696 9.315214-9.372954s-4.157203-9.372954-9.315214-9.372954zM746.03527 1005.234846H528.032301c-5.158011 0-9.315215 4.195696-9.315215 9.372954s4.17645 9.372954 9.315215 9.372954H746.03527c5.138765 0 9.315215-4.195696 9.315215-9.372954s-4.157203-9.372954-9.315215-9.372954zM997.353605 890.026426h-67.747016c-5.158011 0-9.315215 4.195696-9.315215 9.372954s4.17645 9.372954 9.315215 9.372953h67.747016c5.138765 0 9.315215-4.195696 9.315215-9.372953s-4.157203-9.372954-9.315215-9.372954zM892.576686 890.026426H632.693742c-5.158011 0-9.315215 4.195696-9.315214 9.372954s4.17645 9.372954 9.315214 9.372953h260.017668a9.199737 9.199737 0 0 0 9.199737-9.372953 9.372954 9.372954 0 0 0-9.334461-9.372954zM597.646209 899.39938a9.353707 9.353707 0 0 0-9.315215-9.372954H365.34323a9.372954 9.372954 0 0 0 0 18.745907h222.987764a9.353707 9.353707 0 0 0 9.315215-9.372953zM334.645363 890.026426h-40.648209a9.295968 9.295968 0 0 0-9.334461 9.372954 9.372954 9.372954 0 0 0 9.334461 9.372953h40.648209a9.353707 9.353707 0 0 0 6.582239-15.993684 9.238229 9.238229 0 0 0-6.582239-2.752223zM1260.989579 831.921812h-36.914425c-5.158011 0-9.315215 4.195696-9.315215 9.372954s4.17645 9.372954 9.315215 9.372953h36.914425c5.138765 0 9.315215-4.195696 9.315215-9.372953s-4.17645-9.372954-9.315215-9.372954zM1203.058182 831.921812h-91.112039c-5.138765 0-9.315215 4.195696-9.315214 9.372954s4.17645 9.372954 9.315214 9.372953h91.112039c5.138765 0 9.315215-4.195696 9.315214-9.372953s-4.157203-9.372954-9.315214-9.372954zM1116.180332 104.064806h12.048191v10.758688a6.216559 6.216559 0 0 0 12.47161 0v-10.758688h6.543746a6.293544 6.293544 0 1 0 0.115477-12.587088h-6.67847v-7.506061a6.216559 6.216559 0 0 0-12.433117 0v7.506061h-12.048191a6.293544 6.293544 0 0 0-0.019246 12.587088zM1030.322537 116.651894a6.389775 6.389775 0 0 0 6.293543-6.293544v-1.578198a6.351283 6.351283 0 0 0-6.293543-6.293544 6.293544 6.293544 0 0 0-6.293544 6.293544v1.578198a6.293544 6.293544 0 0 0 6.293544 6.293544zM159.6579 570.3067h-10.893412v-16.648059c0.019246-2.463528-0.962316-4.85007-2.771469-6.582238s-4.234189-2.71373-6.774702-2.694484a9.719387 9.719387 0 0 0-6.755455 2.71373 9.122752 9.122752 0 0 0-2.790715 6.562992v16.648059H112.639161a9.180491 9.180491 0 0 0-8.911042 9.3922c0 2.482774 0.943069 4.888563 2.598252 6.639978a8.641594 8.641594 0 0 0 6.293544 2.752222h17.013739v13.587896a9.430693 9.430693 0 0 0 9.54617 9.276722 9.719387 9.719387 0 0 0 6.755456-2.713729 9.122752 9.122752 0 0 0 2.790715-6.562993v-13.587896h10.893412c2.367296 0 4.619115-0.981562 6.293544-2.752222s2.598252-4.157203 2.598252-6.639978a9.103505 9.103505 0 0 0-8.853303-9.3922zM127.978471 724.989306a8.583855 8.583855 0 0 0-12.606334 0.019246 9.661648 9.661648 0 0 0-2.598252 6.639977v14.434734h-12.664073a9.315215 9.315215 0 1 0 0 18.668922h12.644827v16.532581c0 2.482774 0.943069 4.888563 2.598252 6.639978s3.926248 2.752223 6.293544 2.752222 4.619115-0.981562 6.293544-2.752222a9.661648 9.661648 0 0 0 2.598252-6.639978V764.752185h18.842139a9.315215 9.315215 0 0 0 0.038492-18.668922h-18.842139v-14.434734a9.623156 9.623156 0 0 0-2.598252-6.659223zM183.773528 777.704953v-0.057739a11.490048 11.490048 0 0 0 3.945494-0.750607l1.154779-0.500404a9.180491 9.180491 0 0 0 4.773085-12.2599 9.661648 9.661648 0 0 0-12.606334-4.638361l-1.154779 0.500404a9.180491 9.180491 0 0 0-4.773085 12.2599c1.539705 3.310366 4.927056 5.42746 8.66084 5.446707z" fill="#8a8a8a" p-id="5711"></path></svg>