<svg t="1591954326421" class="icon" viewBox="0 0 1024 1024" version="1.1" xmlns="http://www.w3.org/2000/svg" p-id="6548" width="200" height="200"><path d="M389.12 221.610667l-67.285333-11.861334a23.978667 23.978667 0 0 1 8.32-47.232l151.68 26.709334c13.056 2.304 21.76 14.762667 19.456 27.818666l-26.752 151.637334a23.978667 23.978667 0 0 1-47.232-8.32l18.901333-107.264a272.512 272.512 0 0 0-200.277333 207.872 269.909333 269.909333 0 0 0 38.314666 204.544 270.037333 270.037333 0 0 0 171.733334 117.461333 23.978667 23.978667 0 1 1-4.864 47.488 23.722667 23.722667 0 0 1-4.992-0.512 318.037333 318.037333 0 0 1-202.026667-138.24 317.738667 317.738667 0 0 1-45.098667-240.597333A320.512 320.512 0 0 1 389.12 221.610667z m211.114667 552.533333a269.909333 269.909333 0 0 0 139.434666-108.672 269.909333 269.909333 0 0 0 38.357334-204.501333 272.64 272.64 0 0 0-207.872-209.749334 23.978667 23.978667 0 1 1 10.325333-46.848 320.768 320.768 0 0 1 244.522667 246.698667 317.738667 317.738667 0 0 1-45.098667 240.597333 317.866667 317.866667 0 0 1-128.426667 113.194667l73.088 12.885333a23.978667 23.978667 0 0 1-8.32 47.274667l-151.68-26.752a23.978667 23.978667 0 0 1-19.456-27.776l26.709334-151.68a23.978667 23.978667 0 1 1 47.274666 8.362667l-18.858666 106.965333z" fill="currentColor" p-id="6549"></path></svg>