<svg t="1594644708891" class="icon" viewBox="0 0 1024 1024" version="1.1" xmlns="http://www.w3.org/2000/svg" p-id="7454" width="200" height="200"><path d="M512 512m-512 0a512 512 0 1 0 1024 0 512 512 0 1 0-1024 0Z" fill="#F5F7FA" p-id="7455"></path><path d="M746.069333 452.266667a59.477333 59.477333 0 1 1 0 118.954666 59.477333 59.477333 0 0 1 0-118.954666z m-236.629333 0a59.221333 59.221333 0 1 1 0 118.442666 59.221333 59.221333 0 0 1 0-118.442666z m-236.885333 0.512a59.221333 59.221333 0 1 1 0 118.442666 59.221333 59.221333 0 0 1 0-118.442666z" fill="#B2B2B2" p-id="7456"></path></svg>