<?xml version="1.0" standalone="no"?><!DOCTYPE svg PUBLIC "-//W3C//DTD SVG 1.1//EN" "http://www.w3.org/Graphics/SVG/1.1/DTD/svg11.dtd"><svg t="1594197476026" class="icon" viewBox="0 0 1024 1024" version="1.1" xmlns="http://www.w3.org/2000/svg" p-id="13986" xmlns:xlink="http://www.w3.org/1999/xlink" width="200" height="200"><defs><style type="text/css"></style></defs><path d="M791.978667 213.973333H229.12c-32 0-58.026667 27.52-58.026667 61.312l0.085334 446.293334a19.754667 19.754667 0 0 0-0.042667 8.490666v28.16c0 33.834667 26.026667 61.397333 57.984 61.397334h562.858667c32 0 58.026667-27.562667 58.026666-61.354667V275.285333c0-33.749333-26.026667-61.312-58.026666-61.312z m-152.789334 318.037334c-26.965333 53.333333-47.744 88.192-88.448 88.192-14.762667 0-42.837333-16.810667-65.408-30.336-33.749333-20.138667-68.650667-41.045333-102.229333-41.045334-62.208 0-122.026667 54.4-163.456 103.594667V275.328c0-8.832 5.589333-14.506667 9.472-14.506667h562.858667c3.925333 0 9.514667 5.632 9.514666 14.506667v166.698667c-16.213333-9.045333-32.213333-13.653333-47.658666-13.653334-62.122667 0-90.026667 55.04-114.645334 103.637334zM219.648 732.16c31.616-47.744 105.557333-136.490667 163.413333-136.490667 19.925333 0 50.048 18.133333 77.013334 34.218667 32 19.157333 62.250667 37.248 90.666666 37.248 74.154667 0 104.874667-60.842667 132.096-114.517333 24.32-48.128 41.344-77.397333 70.997334-77.397334 13.226667 0 29.696 8.789333 47.658666 25.429334v257.664c0 8.832-5.589333 14.464-9.514666 14.464H229.12c-3.84 0-9.472-5.632-9.472-14.506667v-26.112z" fill="#B2B2B2" p-id="13987"></path><path d="M343.04 315.562667c-50.090667 0-90.837333 39.381333-90.837333 87.765333s40.746667 87.765333 90.88 87.765333c50.090667 0 90.837333-39.338667 90.837333-87.765333 0-48.341333-40.746667-87.765333-90.88-87.765333z m0 130.048a43.008 43.008 0 0 1-43.648-42.24c0-23.338667 19.541333-42.282667 43.690667-42.282667 24.064 0 43.648 18.944 43.648 42.24 0 23.338667-19.626667 42.282667-43.648 42.282667z" fill="#B2B2B2" p-id="13988"></path></svg>