<?xml version="1.0" standalone="no"?><!DOCTYPE svg PUBLIC "-//W3C//DTD SVG 1.1//EN" "http://www.w3.org/Graphics/SVG/1.1/DTD/svg11.dtd"><svg t="1593402795042" class="icon" viewBox="0 0 1024 1024" version="1.1" xmlns="http://www.w3.org/2000/svg" p-id="7808" xmlns:xlink="http://www.w3.org/1999/xlink" width="200" height="200"><defs><style type="text/css"></style></defs><path d="M408.832 473.984H278.485333A65.194667 65.194667 0 0 1 213.333333 408.832V278.485333C213.333333 242.517333 242.517333 213.333333 278.485333 213.333333h130.346667c35.968 0 65.152 29.184 65.152 65.152v130.346667c0 35.968-29.184 65.152-65.152 65.152z m-130.346667-217.173333c-11.904 0-21.717333 9.813333-21.717333 21.674666v130.346667c0 11.904 9.813333 21.717333 21.76 21.717333h130.304c11.904 0 21.717333-9.813333 21.717333-21.76V278.528c0-11.904-9.813333-21.717333-21.76-21.717333H278.528z m130.346667 553.685333H278.485333A65.194667 65.194667 0 0 1 213.333333 745.386667v-130.432c0-35.968 29.184-65.194667 65.152-65.194667h130.346667c35.968 0 65.152 29.226667 65.152 65.194667v130.304a65.28 65.28 0 0 1-65.152 65.28z m-130.346667-217.258667a21.76 21.76 0 0 0-21.717333 21.76v130.304c0 12.032 9.813333 21.76 21.76 21.76h130.304a21.76 21.76 0 0 0 21.717333-21.76v-130.346666a21.76 21.76 0 0 0-21.76-21.717334H278.528z m466.986667-119.253333h-130.346667a65.194667 65.194667 0 0 1-65.152-65.152V278.485333c0-35.968 29.184-65.152 65.152-65.152h130.346667c35.968 0 65.152 29.184 65.152 65.152v130.346667c0 35.968-29.184 65.152-65.152 65.152z m-130.346667-217.173333c-11.904 0-21.717333 9.813333-21.717333 21.674666v130.346667c0 11.904 9.813333 21.717333 21.76 21.717333h130.304c11.904 0 21.717333-9.813333 21.717333-21.76V278.528c0-11.904-9.813333-21.717333-21.76-21.717333h-130.304z m130.346667 553.685333h-130.346667a65.194667 65.194667 0 0 1-65.152-65.152v-130.432c0-35.968 29.184-65.194667 65.152-65.194667h130.346667c35.968 0 65.152 29.226667 65.152 65.194667v130.304a65.28 65.28 0 0 1-65.152 65.28z m-130.346667-217.258667a21.76 21.76 0 0 0-21.717333 21.76v130.304c0 12.032 9.813333 21.76 21.76 21.76h130.304a21.76 21.76 0 0 0 21.717333-21.76v-130.346666a21.76 21.76 0 0 0-21.76-21.717334h-130.304z" p-id="7809"></path></svg>