<?xml version="1.0" standalone="no"?><!DOCTYPE svg PUBLIC "-//W3C//DTD SVG 1.1//EN" "http://www.w3.org/Graphics/SVG/1.1/DTD/svg11.dtd"><svg t="1593401566357" class="icon" viewBox="0 0 1024 1024" version="1.1" xmlns="http://www.w3.org/2000/svg" p-id="7262" xmlns:xlink="http://www.w3.org/1999/xlink" width="200" height="200"><defs><style type="text/css"></style></defs><path d="M192 0h485.504a64 64 0 0 1 45.248 18.752l218.496 218.496A64 64 0 0 1 960 282.496V960a64 64 0 0 1-64 64H192a64 64 0 0 1-64-64V64a64 64 0 0 1 64-64z" fill="#DCDFE6" p-id="7263"></path><path d="M192 32h482.752a32 32 0 0 1 22.624 9.376l221.248 221.248a32 32 0 0 1 9.376 22.624V960a32 32 0 0 1-32 32H192a32 32 0 0 1-32-32V64a32 32 0 0 1 32-32z" fill="#FFFFFF" p-id="7264"></path><path d="M224 832h640v48H224zM224 704h448v48H224z" fill="#DCDFE6" p-id="7265"></path><path d="M0 160m64 0l320 0q64 0 64 64l0 320q0 64-64 64l-320 0q-64 0-64-64l0-320q0-64 64-64Z" fill="#27B766" p-id="7266"></path><path d="M656 0v240a64 64 0 0 0 64 64H960L656 0z" fill="#DCDFE6" p-id="7267"></path><path d="M688 32v208a32 32 0 0 0 32 32H928L688 32z" fill="#FFFFFF" p-id="7268"></path><path d="M368 496H304.96s-80.064-86.976-84.064-93.568h-1.312c-0.384 0.896-75.2 93.568-75.2 93.568H80l107.84-112.576L80 272h64.384s73.088 83.84 77.824 90.752h1.056C227.424 356.8 304.96 272 304.96 272h63.04l-112.224 110.912L368 496z" fill="#FFFFFF" p-id="7269"></path></svg>