<?xml version="1.0" standalone="no"?><!DOCTYPE svg PUBLIC "-//W3C//DTD SVG 1.1//EN" "http://www.w3.org/Graphics/SVG/1.1/DTD/svg11.dtd"><svg t="1593486274109" class="icon" viewBox="0 0 1024 1024" version="1.1" xmlns="http://www.w3.org/2000/svg" p-id="6801" width="200" height="200" xmlns:xlink="http://www.w3.org/1999/xlink"><defs><style type="text/css"></style></defs><path d="M270.037333 202.666667A67.413333 67.413333 0 0 0 202.666667 270.08v483.882667c0 37.205333 30.165333 67.370667 67.370666 67.370666H753.92a67.413333 67.413333 0 0 0 67.413333-67.370666V270.08a67.413333 67.413333 0 0 0-67.413333-67.413333H270.037333z m0 47.36H753.92c11.178667 0 20.053333 8.874667 20.053333 20.053333v483.882667a20.053333 20.053333 0 0 1-20.053333 20.224H270.037333a20.224 20.224 0 0 1-20.224-20.224V270.08a20.053333 20.053333 0 0 1 20.224-20.053333z m76.117334 183.424a20.096 20.096 0 0 0-30.890667 1.408 27.733333 27.733333 0 0 0 0.853333 35.328l179.370667 191.317333a19.925333 19.925333 0 0 0 28.672 1.28c0.384-0.341333 180.821333-192.64 180.821333-192.64a27.733333 27.733333 0 0 0 1.066667-35.498667 20.138667 20.138667 0 0 0-31.061333-1.237333l-164.48 175.36-164.352-175.317333z" fill="#b2b2b2" p-id="6802"></path></svg>