<?xml version="1.0" standalone="no"?><!DOCTYPE svg PUBLIC "-//W3C//DTD SVG 1.1//EN" "http://www.w3.org/Graphics/SVG/1.1/DTD/svg11.dtd"><svg t="1594191087329" class="icon" viewBox="0 0 1024 1024" version="1.1" xmlns="http://www.w3.org/2000/svg" p-id="13854" xmlns:xlink="http://www.w3.org/1999/xlink" width="200" height="200"><defs><style type="text/css"></style></defs><path d="M203.008 213.333333H820.906667c21.333333 0 32 8.234667 32 24.704 0 16.426667-10.666667 24.618667-32 24.618667H203.008c-21.290667 0-31.957333-8.192-31.957333-24.618667 0-16.469333 10.666667-24.661333 32-24.661333zM203.008 469.034667h106.538667c21.333333 0 32 8.234667 32 24.661333 0 16.426667-10.666667 24.661333-32 24.661333H203.008c-21.290667 0-31.957333-8.234667-31.957333-24.661333 0-16.426667 10.666667-24.661333 32-24.661333zM714.368 469.034667h106.538667c21.333333 0 32 8.234667 32 24.661333 0 16.426667-10.666667 24.661333-32 24.661333h-106.538667c-21.290667 0-31.957333-8.234667-31.957333-24.661333 0-16.426667 10.666667-24.661333 32-24.661333zM458.666667 469.034667h106.581333c21.333333 0 31.957333 8.234667 31.957333 24.661333 0 16.426667-10.666667 24.661333-32 24.661333h-106.496c-21.333333 0-32-8.234667-32-24.661333 0-16.426667 10.666667-24.661333 32-24.661333zM203.008 724.736H820.906667c21.333333 0 32 8.192 32 24.661333 0 16.426667-10.666667 24.618667-32 24.618667H203.008c-21.290667 0-31.957333-8.192-31.957333-24.618667 0-16.469333 10.666667-24.661333 32-24.661333z" fill="#B2B2B2" p-id="13855"></path></svg>