<svg t="1593578792219" class="icon" viewBox="0 0 1024 1024" version="1.1" xmlns="http://www.w3.org/2000/svg" p-id="6911" width="200" height="200"><path d="M853.333333 218.794667v613.290666c0 7.722667-4.906667 14.805333-12.8 18.56a28.544 28.544 0 0 1-25.173333-0.512l-92.373333-49.237333-92.330667 49.237333c-8.064 4.266667-18.261333 4.266667-26.325333 0L512 800.853333l-92.373333 49.237334c-8.064 4.266667-18.218667 4.266667-26.282667 0L301.013333 800.853333 208.64 850.133333a28.544 28.544 0 0 1-25.173333 0.512 20.992 20.992 0 0 1-12.8-18.56V218.794667C170.666667 192.256 195.882667 170.666667 226.986667 170.666667h570.026666c31.061333 0 56.32 21.546667 56.32 48.128z m-632.106666 7.552v430.165333h29.269333c8.96-0.426667 17.408 3.413333 22.058667 10.026667a18.176 18.176 0 0 1 0 21.333333 25.514667 25.514667 0 0 1-22.058667 10.026667h-29.269333v92.458666l70.826666-34.901333a27.733333 27.733333 0 0 1 25.6 0l90.026667 47.914667 90.026667-47.914667a27.733333 27.733333 0 0 1 25.557333 0l90.026667 47.914667 89.941333-47.914667a27.733333 27.733333 0 0 1 25.6 0l75.946667 34.901333v-92.458666h-34.432a25.514667 25.514667 0 0 1-22.016-10.026667 18.176 18.176 0 0 1 0-21.333333 25.514667 25.514667 0 0 1 22.016-10.026667h34.432V226.346667c0-2.986667-13.056-9.301333-16.597334-9.301334H232.661333c-3.498667 0-11.434667 6.272-11.434666 9.301334z m261.930666 450.176c0 11.776-9.429333 21.333333-21.034666 21.333333H371.84a21.205333 21.205333 0 0 1-21.034667-21.333333c0-11.776 9.386667-21.333333 21.034667-21.333334h90.282667a20.906667 20.906667 0 0 1 14.848 6.272c3.968 3.968 6.186667 9.386667 6.186666 15.061334z m180.565334 0c0 11.776-9.429333 21.333333-21.034667 21.333333h-90.282667a21.205333 21.205333 0 0 1-21.077333-21.333333c0-11.776 9.429333-21.333333 21.077333-21.333334h90.282667c11.605333 0 21.034667 9.557333 21.034667 21.333334z m-38.826667-95.445334a84.522667 84.522667 0 0 1-84.224-84.266666c0-46.378667 37.888-84.309333 84.266667-84.309334 46.336 0 84.266667 37.973333 84.266666 84.309334a84.522667 84.522667 0 0 1-84.266666 84.266666z m0-126.421333c-25.258667 0-42.112 16.853333-42.112 42.154667 0 25.258667 16.853333 42.112 42.154667 42.112s42.154667-16.853333 42.154666-42.112c0-25.301333-16.853333-42.154667-42.154666-42.154667z m-126.378667 126.421333c-8.448 0-12.629333-4.224-16.853333-8.448L372.053333 383.018667v176.981333c0 12.629333-8.448 21.077333-21.077333 21.077333s-21.077333-8.448-21.077333-21.077333V307.2c0-8.405333 8.448-16.853333 16.853333-21.077333 8.448-4.181333 16.853333 0 25.301333 8.448l105.386667 189.610666V307.2c0-12.629333 8.405333-21.077333 21.034667-21.077333s21.077333 8.448 21.077333 21.077333v252.842667c0 8.448-8.448 16.853333-16.853333 21.077333h-4.224z" fill="#B2B2B2" p-id="6912"></path></svg>