<?xml version="1.0" standalone="no"?><!DOCTYPE svg PUBLIC "-//W3C//DTD SVG 1.1//EN" "http://www.w3.org/Graphics/SVG/1.1/DTD/svg11.dtd"><svg t="1603333328614" class="icon" viewBox="0 0 1024 1024" version="1.1" xmlns="http://www.w3.org/2000/svg" p-id="12056" xmlns:xlink="http://www.w3.org/1999/xlink" width="200" height="200"><defs><style type="text/css"></style></defs><path d="M753.066667 192c43.52 0 78.933333 35.712 78.933333 79.573333v374.016a79.36 79.36 0 0 1-78.933333 79.573334 22.826667 22.826667 0 0 1-22.656-22.869334c0-12.629333 10.154667-22.869333 22.698666-22.869333a33.706667 33.706667 0 0 0 33.493334-33.834667V271.573333a33.706667 33.706667 0 0 0-33.493334-33.792H382.890667l-1.621334 0.042667a33.706667 33.706667 0 0 0-33.536 33.792 22.826667 22.826667 0 0 1-22.698666 22.912 22.826667 22.826667 0 0 1-22.698667-22.912c0-43.264 34.389333-78.549333 77.056-79.530667l1.92-0.085333h371.797333z m-110.378667 106.837333c43.52 0 78.890667 35.669333 78.890667 79.573334v374.016c0.085333 21.205333-8.106667 41.130667-23.04 56.149333-14.890667 15.104-34.730667 23.424-55.893334 23.424H270.933333A79.36 79.36 0 0 1 192 752.426667V378.453333a79.36 79.36 0 0 1 78.933333-79.573333h371.754667z m33.493333 453.674667V378.410667a33.706667 33.706667 0 0 0-33.493333-33.834667H270.890667a33.706667 33.706667 0 0 0-33.493334 33.834667v374.016a33.706667 33.706667 0 0 0 33.493334 33.792h371.797333a33.621333 33.621333 0 0 0 33.536-33.706667z m-137.984-210.005333c12.501333 0 22.698667 10.24 22.698667 22.869333a22.826667 22.826667 0 0 1-22.698667 22.869333h-58.666666v59.178667a22.826667 22.826667 0 0 1-22.698667 22.912 22.826667 22.826667 0 0 1-22.698667-22.912v-59.178667H375.466667a22.826667 22.826667 0 0 1-22.698667-22.869333c0-12.629333 10.154667-22.869333 22.698667-22.869333h58.666666v-59.178667c0-12.629333 10.154667-22.869333 22.698667-22.869333 12.501333 0 22.698667 10.24 22.698667 22.869333v59.178667h58.666666z" fill="currentColor" p-id="12057"></path></svg>