<?xml version="1.0" standalone="no"?><!DOCTYPE svg PUBLIC "-//W3C//DTD SVG 1.1//EN" "http://www.w3.org/Graphics/SVG/1.1/DTD/svg11.dtd"><svg t="1593404042988" class="icon" viewBox="0 0 1024 1024" version="1.1" xmlns="http://www.w3.org/2000/svg" p-id="6668" xmlns:xlink="http://www.w3.org/1999/xlink" width="200" height="200"><defs><style type="text/css"></style></defs><path d="M459.52 481.92H386.56L285.888 590.208V358.912h-57.856v376.32h57.856V633.024l106.112 102.08H468.48l-128-131.456L459.52 481.92z m152.064 33.472V358.912h-50.688v376.256h50.688v-14.08c21.696 20.608 42.624 30.976 71.68 30.976 36.288 0 66.624-13.376 88.512-39.68 21.632-26.112 33.024-61.44 33.024-105.024 0-39.744-9.664-71.68-29.056-94.72-19.584-23.552-47.744-35.456-80.96-35.456-34.176 0-61.504 12.8-83.2 38.208z m0 121.536v-34.112c0-22.912 7.872-41.152 21.184-55.808 13.248-14.528 30.336-21.568 50.56-21.568 19.968 0 35.584 6.976 46.912 21.312 11.584 14.656 17.664 34.816 17.664 59.904 0 30.72-6.272 55.04-18.816 72.192-12.352 16.768-28.992 24.96-50.944 24.96a62.272 62.272 0 0 1-46.912-19.2 67.52 67.52 0 0 1-19.648-47.68z" fill="#B2B2B2" p-id="6669"></path><path d="M958.72 303.232c0-4.16 0.32-9.216-2.56-12.096l-234.112-219.968a20.672 20.672 0 0 0-9.856-5.696L193.92 64.448c-61.504 0-110.656 34.816-110.656 96.32V860.16c0 61.504 48.64 99.072 110.208 99.072h661.312c61.504 0 104.128-37.568 104.128-99.072V309.12l-0.192-5.888z m-169.024-23.936c-33.92 0-69.632-21.12-69.632-55.04V137.6l156.16 141.696H789.76z m-1.472 57.856h112.768v510.592c0 34.432-20.608 53.888-55.04 53.888H202.24c-34.432 0-61.056-19.392-61.056-53.824V173.184c0-34.432 26.624-53.12 61.056-53.12h481.664V231.04c0 59.52 44.8 106.24 104.32 106.24z" fill="#B2B2B2" p-id="6670"></path></svg>