<?xml version="1.0" standalone="no"?><!DOCTYPE svg PUBLIC "-//W3C//DTD SVG 1.1//EN" "http://www.w3.org/Graphics/SVG/1.1/DTD/svg11.dtd"><svg t="1593401501126" class="icon" viewBox="0 0 1024 1024" version="1.1" xmlns="http://www.w3.org/2000/svg" p-id="6577" xmlns:xlink="http://www.w3.org/1999/xlink" width="200" height="200"><defs><style type="text/css"></style></defs><path d="M462.677333 705.706667a97.066667 97.066667 0 0 1-133.205333 23.808 92.458667 92.458667 0 0 1-22.698667-130.645334l4.608-6.4 257.706667-360.448a23.594667 23.594667 0 0 1 5.930667-5.546666c53.034667-60.416 144.170667-73.813333 211.456-27.733334 67.328 46.122667 85.632 134.528 45.781333 203.946667a23.509333 23.509333 0 0 1-3.285333 7.381333l-248.533334 347.52-4.608 6.4c-71.168 99.541333-210.304 124.458667-310.784 55.637334a215.722667 215.722667 0 0 1-52.992-304.853334c2.048-2.986667 2.986667-4.138667 4.565334-6.4l211.712-296.106666a24.277333 24.277333 0 0 1 33.28-5.930667 23.125333 23.125333 0 0 1 5.717333 32.682667L255.616 535.04l-4.608 6.442667a169.472 169.472 0 0 0 41.642667 239.530666c78.933333 54.058667 188.288 34.517333 244.181333-43.690666 1.834667-2.432 2.986667-4.138667 4.608-6.4l243.925333-341.12a107.861333 107.861333 0 0 0-26.453333-152.448 113.237333 113.237333 0 0 0-155.434667 27.818666L350.336 619.093333l-4.565333 6.4c-15.274667 21.333333-10.197333 50.602667 11.349333 65.365334 21.504 14.762667 51.328 9.386667 66.56-11.946667l38.997333 26.752z m-38.997333-26.709334l186.453333-260.736a24.234667 24.234667 0 0 1 33.322667-5.973333 23.082667 23.082667 0 0 1 5.674667 32.64l-186.453334 260.778667-38.997333-26.709334z" fill="#B2B2B2" p-id="6578"></path></svg>