<?xml version="1.0" standalone="no"?><!DOCTYPE svg PUBLIC "-//W3C//DTD SVG 1.1//EN" "http://www.w3.org/Graphics/SVG/1.1/DTD/svg11.dtd"><svg t="1593403881253" class="icon" viewBox="0 0 1024 1024" version="1.1" xmlns="http://www.w3.org/2000/svg" p-id="6712" xmlns:xlink="http://www.w3.org/1999/xlink" width="200" height="200"><defs><style type="text/css"></style></defs><path d="M578.645333 671.658667a22.698667 22.698667 0 0 1-22.741333-22.741334V398.762667a22.741333 22.741333 0 0 1 45.525333 0v250.154666a22.698667 22.698667 0 0 1-22.784 22.741334z m-136.448 0a22.698667 22.698667 0 0 1-22.741333-22.741334V398.762667a22.741333 22.741333 0 0 1 45.525333 0v250.154666a22.698667 22.698667 0 0 1-22.784 22.741334z m363.946667-386.688h-113.792V239.488a68.096 68.096 0 0 0-67.669333-68.266667H396.544a68.352 68.352 0 0 0-68.266667 68.266667v45.482667h-113.493333a22.741333 22.741333 0 0 0 0 45.525333h591.274667a22.741333 22.741333 0 0 0 0-45.525333h0.042666zM373.973333 239.488c0-12.544 10.197333-22.741333 22.741334-22.741333h227.968a22.229333 22.229333 0 0 1 22.272 22.741333v45.482667h-273.066667V239.488h0.085333zM313.728 808.064a68.352 68.352 0 0 1-68.266667-68.266667V398.208a22.741333 22.741333 0 0 1 45.525334 0v341.589333c0 12.544 10.197333 22.698667 22.741333 22.741334h393.685333c12.586667 0 22.741333-10.197333 22.784-22.741334V399.274667a22.741333 22.741333 0 0 1 45.482667 0v340.48a68.48 68.48 0 0 1-68.266667 68.266666H313.685333z" p-id="6713"></path></svg>