<?xml version="1.0" standalone="no"?><!DOCTYPE svg PUBLIC "-//W3C//DTD SVG 1.1//EN" "http://www.w3.org/Graphics/SVG/1.1/DTD/svg11.dtd"><svg t="1593401577024" class="icon" viewBox="0 0 1024 1024" version="1.1" xmlns="http://www.w3.org/2000/svg" p-id="7538" xmlns:xlink="http://www.w3.org/1999/xlink" width="200" height="200"><defs><style type="text/css"></style></defs><path d="M192 0h485.504a64 64 0 0 1 45.248 18.752l218.496 218.496A64 64 0 0 1 960 282.496V960a64 64 0 0 1-64 64H192a64 64 0 0 1-64-64V64a64 64 0 0 1 64-64z" fill="#DCDFE6" p-id="7539"></path><path d="M192 32h482.752a32 32 0 0 1 22.624 9.376l221.248 221.248a32 32 0 0 1 9.376 22.624V960a32 32 0 0 1-32 32H192a32 32 0 0 1-32-32V64a32 32 0 0 1 32-32z" fill="#FFFFFF" p-id="7540"></path><path d="M224 832h640v48H224zM224 704h448v48H224z" fill="#DCDFE6" p-id="7541"></path><path d="M0 160m64 0l320 0q64 0 64 64l0 320q0 64-64 64l-320 0q-64 0-64-64l0-320q0-64 64-64Z" fill="#F56C6C" p-id="7542"></path><path d="M339.488 462.912a113.248 113.248 0 0 1-65.76-26.72 635.2 635.2 0 0 0-105.76 33.856C140.48 519.04 114.656 544 92.48 544c-4.48 0-9.792-0.896-13.344-3.552A26.24 26.24 0 0 1 64 516.384c0-8 1.792-30.304 86.208-66.848a635.2 635.2 0 0 0 47.104-110.496C186.624 317.664 163.52 265.088 179.52 238.4a28.256 28.256 0 0 1 27.552-14.272 29.44 29.44 0 0 1 23.104 11.584c11.552 16.032 10.656 49.92-4.448 99.808a268.672 268.672 0 0 0 55.104 71.296c18.656-3.584 37.344-6.24 56-6.24 41.76 0.896 48 20.48 47.104 32.064 0 30.304-29.344 30.304-44.448 30.304z m-248.832 55.232l2.656-0.864c12.48-4.48 22.24-13.376 29.344-24.96-13.344 5.344-24 14.24-32 25.824z m118.208-267.328h-2.688c-0.864 0-2.656 0-3.52 0.896-3.584 15.168-0.896 31.2 5.312 45.44 5.344-15.136 5.344-31.168 0.896-46.336z m6.208 129.216l-0.896 1.792-0.864-0.896c-8 20.48-16.896 40.992-26.688 60.608l1.792-0.896v1.76a516.48 516.48 0 0 1 60.416-17.792l-0.864-0.896h2.656a272.896 272.896 0 0 1-35.52-43.68z m120.864 47.232c-8 0-15.104 0-23.104 1.792 8.896 4.448 17.76 6.24 26.656 7.136 6.208 0.864 12.448 0 17.76-1.792 0-2.688-3.52-7.136-21.312-7.136z" fill="#FFFFFF" p-id="7543"></path><path d="M656 0v240a64 64 0 0 0 64 64H960L656 0z" fill="#DCDFE6" p-id="7544"></path><path d="M688 32v208a32 32 0 0 0 32 32H928L688 32z" fill="#FFFFFF" p-id="7545"></path></svg>