<?xml version="1.0" standalone="no"?><!DOCTYPE svg PUBLIC "-//W3C//DTD SVG 1.1//EN" "http://www.w3.org/Graphics/SVG/1.1/DTD/svg11.dtd"><svg t="1590488882994" class="icon" viewBox="0 0 1024 1024" version="1.1" xmlns="http://www.w3.org/2000/svg" p-id="2323" xmlns:xlink="http://www.w3.org/1999/xlink" width="200" height="200"><defs><style type="text/css"></style></defs><path d="M511.104 808.277333a297.045333 297.045333 0 0 1-297.173333-297.173333 297.045333 297.045333 0 0 1 297.173333-297.173333 297.045333 297.045333 0 0 1 297.173333 297.173333 297.045333 297.045333 0 0 1-297.173333 297.173333z m0-531.797333c-129.066667 0-234.666667 105.557333-234.666667 234.624 0 129.024 105.6 234.624 234.666667 234.624 129.024 0 234.624-105.6 234.624-234.666667 0-129.024-105.6-234.581333-234.666667-234.581333z" fill="#9DDCFE" p-id="2324"></path><path d="M776.96 542.378667a31.402667 31.402667 0 0 1-31.232-31.274667c0-61.44-24.149333-120.448-67.242667-164.266667a32.597333 32.597333 0 0 1 0-44.544 32.597333 32.597333 0 0 1 44.586667 0 298.666667 298.666667 0 0 1 85.205333 208.810667 31.402667 31.402667 0 0 1-31.274666 31.274667z" fill="#027AFF" p-id="2325"></path></svg>