<?xml version="1.0" standalone="no"?><!DOCTYPE svg PUBLIC "-//W3C//DTD SVG 1.1//EN" "http://www.w3.org/Graphics/SVG/1.1/DTD/svg11.dtd"><svg t="1590564755727" class="icon" viewBox="0 0 1024 1024" version="1.1" xmlns="http://www.w3.org/2000/svg" p-id="3703" xmlns:xlink="http://www.w3.org/1999/xlink" width="200" height="200"><defs><style type="text/css"></style></defs><path d="M717.696 818.517333a70.186667 70.186667 0 0 1-68.565333-68.352v-45.568a70.186667 70.186667 0 0 1 68.565333-68.309333v-45.568a21.546667 21.546667 0 0 0-22.869333-22.741333h-160v68.352c37.461333 0.853333 67.626667 30.933333 68.608 68.352v45.482666a67.2 67.2 0 0 1-68.565334 68.352h-45.738666a70.186667 70.186667 0 0 1-68.565334-68.352v-45.568a70.186667 70.186667 0 0 1 68.565334-68.309333V567.893333h-160a21.546667 21.546667 0 0 0-22.826667 22.698667v45.568c37.418667 0.853333 67.584 30.933333 68.565333 68.352v45.610667a67.2 67.2 0 0 1-68.565333 68.352H260.565333A70.186667 70.186667 0 0 1 192 750.165333v-45.568a70.186667 70.186667 0 0 1 68.565333-68.309333v-45.568a70.186667 70.186667 0 0 1 68.565334-68.352h160v-48.469333h-45.696a70.186667 70.186667 0 0 1-68.565334-68.352V268.885333A70.186667 70.186667 0 0 1 443.434667 200.533333h137.130666c37.418667 0.853333 67.626667 30.933333 68.608 68.352v136.661334a67.2 67.2 0 0 1-68.608 68.352h-45.696v48.469333h160c37.418667 0.853333 67.584 30.890667 68.565334 68.309333v45.568c37.418667 0.853333 67.584 30.933333 68.565333 68.352v45.568a67.2 67.2 0 0 1-68.565333 68.352H717.653333z m-251.392-68.352a21.546667 21.546667 0 0 0 22.826667 22.698667h45.738666a21.546667 21.546667 0 0 0 22.826667-22.698667v-45.568a21.546667 21.546667 0 0 0-22.826667-22.698666h-45.738666a21.546667 21.546667 0 0 0-22.826667 22.698666v45.568zM244.053333 688.128a21.546667 21.546667 0 0 0-6.314666 16.469333v45.568a21.546667 21.546667 0 0 0 22.826666 22.698667H306.346667a21.546667 21.546667 0 0 0 22.826666-22.698667v-45.568a21.546667 21.546667 0 0 0-22.826666-22.698666H260.565333a21.546667 21.546667 0 0 0-16.512 6.229333z m359.381334-419.242667a21.546667 21.546667 0 0 0-22.869334-22.741333h-137.130666a21.546667 21.546667 0 0 0-22.869334 22.741333v136.661334a21.546667 21.546667 0 0 0 22.869334 22.741333h137.130666a21.546667 21.546667 0 0 0 22.869334-22.741333V268.885333z m176.512 419.242667a21.546667 21.546667 0 0 0-16.512-6.229333H717.653333a21.546667 21.546667 0 0 0-22.869333 22.698666v45.568a21.546667 21.546667 0 0 0 22.869333 22.698667h45.696a21.546667 21.546667 0 0 0 22.869334-22.698667v-45.568a21.461333 21.461333 0 0 0-6.314667-16.469333z" fill="#b2b2b2" p-id="3704"></path></svg>