<?xml version="1.0" standalone="no"?><!DOCTYPE svg PUBLIC "-//W3C//DTD SVG 1.1//EN" "http://www.w3.org/Graphics/SVG/1.1/DTD/svg11.dtd"><svg t="1594713645673" class="icon" viewBox="0 0 1024 1024" version="1.1" xmlns="http://www.w3.org/2000/svg" p-id="10050" xmlns:xlink="http://www.w3.org/1999/xlink" width="200" height="200"><defs><style type="text/css"></style></defs><path d="M852.693333 255.658667a171.093333 171.093333 0 0 0-254.634666-29.44l-103.424 93.098666c-11.264 10.154667-12.032 24.448-1.877334 35.754667 10.154667 11.264 24.448 12.032 35.754667 1.877333l97.749333-88.064c47.018667-42.325333 118.869333-45.738667 164.949334-2.133333 53.034667 47.616 50.432 131.669333-0.341334 177.365333l-103.424 93.141334c-11.264 10.154667-12.032 24.448-1.877333 35.712 10.154667 11.306667 24.448 12.032 35.754667 1.877333l99.626666-89.728c63.957333-57.557333 79.914667-157.013333 31.744-229.461333z m-268.629333 408.746666c-10.197333-11.264-24.490667-12.032-35.754667-1.877333l-99.669333 89.728c-46.976 42.325333-118.826667 45.738667-164.906667 2.133333-53.077333-47.573333-50.432-131.669333 0.341334-177.365333l103.381333-93.098667c11.306667-10.197333 12.032-24.490667 1.877333-35.754666s-24.448-12.032-35.712-1.877334l-97.792 88.064c-63.914667 57.557333-81.578667 155.136-31.573333 225.834667 60.032 85.589333 181.162667 99.072 256.384 31.36l103.424-93.098667c7.509333-6.784 8.448-24.661333 0-34.048z" fill="#B2B2B2" p-id="10051"></path><path d="M423.808 611.2c8.448 9.386667 26.325333 10.368 35.712 1.877333l188.032-169.301333a25.344 25.344 0 0 0 1.877333-35.712c-8.448-9.386667-26.325333-10.325333-35.712-1.877333l-188.032 169.301333c-9.386667 8.448-10.368 26.325333-1.877333 35.712z" fill="#B2B2B2" p-id="10052"></path></svg>