<?xml version="1.0" standalone="no"?><!DOCTYPE svg PUBLIC "-//W3C//DTD SVG 1.1//EN" "http://www.w3.org/Graphics/SVG/1.1/DTD/svg11.dtd"><svg t="1600329714231" class="icon" viewBox="0 0 1024 1024" version="1.1" xmlns="http://www.w3.org/2000/svg" p-id="11471" xmlns:xlink="http://www.w3.org/1999/xlink" width="200" height="200"><defs><style type="text/css"></style></defs><path d="M192 0h485.504a64 64 0 0 1 45.248 18.752l218.496 218.496A64 64 0 0 1 960 282.496V960a64 64 0 0 1-64 64H192a64 64 0 0 1-64-64V64a64 64 0 0 1 64-64z" fill="#DCDFE6" p-id="11472"></path><path d="M192 32h482.752a32 32 0 0 1 22.624 9.376l221.248 221.248a32 32 0 0 1 9.376 22.624V960a32 32 0 0 1-32 32H192a32 32 0 0 1-32-32V64a32 32 0 0 1 32-32z" fill="#FFFFFF" p-id="11473"></path><path d="M224 832h640v48H224zM224 704h448v48H224z" fill="#DCDFE6" p-id="11474"></path><path d="M0 160m64 0l320 0q64 0 64 64l0 320q0 64-64 64l-320 0q-64 0-64-64l0-320q0-64 64-64Z" fill="#F5A623" p-id="11475"></path><path d="M656 0v240a64 64 0 0 0 64 64H960L656 0z" fill="#DCDFE6" p-id="11476"></path><path d="M688 32v208a32 32 0 0 0 32 32H928L688 32z" fill="#FFFFFF" p-id="11477"></path><path d="M234.112 256H128v256h41.92v-98.24h63.488c62.4 0 93.568-26.56 93.568-79.232C327.008 282.176 295.776 256 234.112 256z m-3.2 35.84c18.24 0 31.904 3.232 40.512 10.048 8.576 6.464 13.248 17.216 13.248 32.64s-4.288 26.528-12.896 33.344c-8.64 6.432-22.24 10.048-40.896 10.048H169.952V291.84H230.912z" fill="#FFFFFF" p-id="11478"></path></svg>