<?xml version="1.0" standalone="no"?><!DOCTYPE svg PUBLIC "-//W3C//DTD SVG 1.1//EN" "http://www.w3.org/Graphics/SVG/1.1/DTD/svg11.dtd"><svg t="1593401538006" class="icon" viewBox="0 0 1024 1024" version="1.1" xmlns="http://www.w3.org/2000/svg" p-id="6709" xmlns:xlink="http://www.w3.org/1999/xlink" width="200" height="200"><defs><style type="text/css"></style></defs><path d="M192 0h485.504a64 64 0 0 1 45.248 18.752l218.496 218.496A64 64 0 0 1 960 282.496V960a64 64 0 0 1-64 64H192a64 64 0 0 1-64-64V64a64 64 0 0 1 64-64z" fill="#DCDFE6" p-id="6710"></path><path d="M192 32h482.752a32 32 0 0 1 22.624 9.376l221.248 221.248a32 32 0 0 1 9.376 22.624V960a32 32 0 0 1-32 32H192a32 32 0 0 1-32-32V64a32 32 0 0 1 32-32z" fill="#FFFFFF" p-id="6711"></path><path d="M224 832h640v48H224zM224 704h448v48H224z" fill="#DCDFE6" p-id="6712"></path><path d="M0 160m64 0l320 0q64 0 64 64l0 320q0 64-64 64l-320 0q-64 0-64-64l0-320q0-64 64-64Z" fill="#F5A623" p-id="6713"></path><path d="M656 0v240a64 64 0 0 0 64 64H960L656 0z" fill="#DCDFE6" p-id="6714"></path><path d="M688 32v208a32 32 0 0 0 32 32H928L688 32z" fill="#FFFFFF" p-id="6715"></path><path d="M311.168 347.072h-0.032c13.568 7.84 21.312 19.424 21.312 31.808 0 12.352-7.744 23.936-21.28 31.744L192.608 479.04a44.96 44.96 0 0 1-22.496 6.624c-16.192 0-32.512-11.872-32.512-38.4V310.432c0-26.56 16.32-38.432 32.512-38.432 7.968 0.192 15.712 2.496 22.496 6.656l118.56 68.416z m-20.608 40.288c5.152-2.944 8.224-6.592 8.224-9.728 0-3.2-3.072-6.848-8.192-9.824L187.744 308.48a18.816 18.816 0 0 0-9.28-3.04c-6.688 0-7.68 8-7.68 12.8v118.752c0 4.768 1.024 12.8 7.68 12.8a18.816 18.816 0 0 0 9.248-3.04l102.848-59.392zM41.6 217.6h46.496v46.496H41.6V217.632zM41.6 312.32h46.496v46.528H41.6zM41.6 407.04h46.496v46.528H41.6zM41.6 501.76h46.496v46.528H41.6z" fill="#FFFFFF" p-id="6716"></path><path d="M361.6 217.6h46.496v46.496H361.6V217.632zM361.6 312.32h46.496v46.528H361.6zM361.6 407.04h46.496v46.528H361.6zM361.6 501.76h46.496v46.528H361.6z" fill="#FFFFFF" p-id="6717"></path></svg>