<?xml version="1.0" standalone="no"?><!DOCTYPE svg PUBLIC "-//W3C//DTD SVG 1.1//EN" "http://www.w3.org/Graphics/SVG/1.1/DTD/svg11.dtd"><svg t="1594199359165" class="icon" viewBox="0 0 1024 1024" version="1.1" xmlns="http://www.w3.org/2000/svg" p-id="14119" xmlns:xlink="http://www.w3.org/1999/xlink" width="200" height="200"><defs><style type="text/css"></style></defs><path d="M787.2 395.733333a297.685333 297.685333 0 0 0-64-94.890666A297.685333 297.685333 0 0 0 512 213.333333a296.789333 296.789333 0 0 0-211.2 87.466667A297.685333 297.685333 0 0 0 213.333333 512a296.789333 296.789333 0 0 0 87.466667 211.2A298.154667 298.154667 0 0 0 512 810.581333c40.32 0 79.445333-7.893333 116.266667-23.466666a296.533333 296.533333 0 0 0 94.890666-64A298.154667 298.154667 0 0 0 810.666667 512c0-40.32-7.850667-79.445333-23.424-116.266667z m-37.76 216.704a257.365333 257.365333 0 0 1-55.168 81.834667 256.085333 256.085333 0 0 1-182.058667 75.392 255.36 255.36 0 0 1-100.266666-20.224 257.365333 257.365333 0 0 1-81.792-55.168 256.085333 256.085333 0 0 1-75.392-182.058667c0-34.773333 6.784-68.522667 20.224-100.266666a257.365333 257.365333 0 0 1 55.168-81.792 256.085333 256.085333 0 0 1 182.058666-75.392c34.773333 0 68.48 6.784 100.224 20.224 30.634667 12.970667 58.197333 31.573333 81.834667 55.168a256.085333 256.085333 0 0 1 75.392 182.058666c0 34.773333-6.826667 68.48-20.224 100.224z" fill="#9b9b9b" p-id="14120"></path><path d="M485.034667 664.917333a31.146667 31.146667 0 1 0 62.208 0 31.146667 31.146667 0 0 0-62.208 0zM516.138667 332.8c-57.173333 0-103.68 46.506667-103.68 103.68a20.736 20.736 0 1 0 41.472 0 62.293333 62.293333 0 0 1 62.208-62.208 62.293333 62.293333 0 0 1 62.250666 62.250667c0 28.416-16.298667 43.349333-36.906666 62.208-21.589333 19.754667-46.08 42.112-46.08 81.792a20.736 20.736 0 1 0 41.472 0c0-20.352 12.373333-32.725333 32.597333-51.2 22.442667-20.565333 50.346667-46.08 50.346667-92.8 0-57.173333-46.506667-103.722667-103.68-103.722667z" fill="#9b9b9b" p-id="14121"></path></svg>