<?xml version="1.0" standalone="no"?><!DOCTYPE svg PUBLIC "-//W3C//DTD SVG 1.1//EN" "http://www.w3.org/Graphics/SVG/1.1/DTD/svg11.dtd"><svg t="1591068816167" class="icon" viewBox="0 0 1264 1024" version="1.1" xmlns="http://www.w3.org/2000/svg" p-id="7054" xmlns:xlink="http://www.w3.org/1999/xlink" width="246.875" height="200"><defs><style type="text/css"></style></defs><path d="M873.345753 126.232548l401.099398 231.409973a46.290411 46.290411 0 0 1 16.97315 63.249534l-303.202191 525.326027a46.318466 46.318466 0 0 1-63.263562 16.973151L523.839123 731.767233a46.290411 46.290411 0 0 1-16.97315-63.249534L810.082192 143.177644a46.318466 46.318466 0 0 1 63.263561-16.945096z" fill="#FAFAFA" p-id="7055"></path><path d="M1037.704767 549.495233a133.568877 133.568877 0 0 1-148.073205-9.706959 133.49874 133.49874 0 0 1 63.866739-238.283397 133.540822 133.540822 0 0 1 133.091946 65.606137c36.864 63.86674 14.98126 145.520219-48.88548 182.384219zM884.202959 483.945205a100.099507 100.099507 0 0 0 121.603507 43.695343l-98.654685-170.853699a100.057425 100.057425 0 0 0-22.948822 127.158356z m51.859288-143.836931l98.654685 170.853699a100.015342 100.015342 0 0 0-98.654685-170.853699z" fill="#F0F1F2" p-id="7056"></path><path d="M108.053041 286.621808L589.908164 8.458521a55.646685 55.646685 0 0 1 76.028494 20.36778l364.445808 631.120658a55.61863 55.61863 0 0 1-20.367781 76.000438L528.145534 1014.096658a55.646685 55.646685 0 0 1-76.000438-20.367781L87.671233 362.608219a55.61863 55.61863 0 0 1 20.367781-75.986411z" fill="#FDFDFD" p-id="7057"></path><path d="M1205.219945 151.60811a33.048548 33.048548 0 0 0-27.732164-27.914521c-15.388055-3.198247-15.374027-6.354411 0.028055-9.454466a33.048548 33.048548 0 0 0 27.91452-27.718137c3.212274-15.374027 6.368438-15.36 9.468493 0.042082a33.048548 33.048548 0 0 0 27.732165 27.914521c15.374027 3.198247 15.36 6.340384-0.042082 9.440438a33.048548 33.048548 0 0 0-27.914521 27.732165c-3.198247 15.374027-6.354411 15.36-9.454466-0.042082zM52.644822 748.179288c6.452603-33.693808-4.502795-60.135452-32.894247-79.310904-28.377425-19.189479-25.754301-25.557918 7.86937-19.091288 33.623671 6.452603 60.009205-4.516822 79.156603-32.964384 19.147397-28.433534 25.501808-25.810411 19.049205 7.883398-6.452603 33.693808 4.516822 60.135452 32.908274 79.310904 28.377425 19.189479 25.754301 25.54389-7.869369 19.07726-33.623671-6.452603-60.009205 4.530849-79.156603 32.964384-19.147397 28.433534-25.501808 25.810411-19.063233-7.86937zM1354.934356 757.198904a47.300384 47.300384 0 0 0-52.224-21.265534c-22.079123 4.41863-23.846575 0.252493-5.274301-12.512438a47.48274 47.48274 0 0 0 21.223452-52.322192c-4.41863-22.121205-0.252493-23.888658 12.484383-5.288329a47.300384 47.300384 0 0 0 52.238028 21.265534c22.079123-4.41863 23.832548-0.252493 5.260274 12.512439a47.48274 47.48274 0 0 0-21.223452 52.322191c4.41863 22.121205 0.252493 23.888658-12.484384 5.288329zM435.466521 687.74926l183.646684-104.462027c5.44263-3.142137 13.185753 0.084164 17.309809 7.210082 4.110027 7.125918 3.029918 15.458192-2.412713 18.600329l-183.646685 104.448c-5.44263 3.142137-13.185753-0.084164-17.309808-7.210082-4.110027-7.125918-3.029918-15.444164 2.412713-18.586302z m48.254246 78.890082l335.086466-193.451835c5.44263-3.142137 13.354082 0.350685 17.646466 7.799233 4.306411 7.448548 3.380603 16.047342-2.062028 19.189479L499.305205 793.642082c-5.44263 3.142137-13.340055-0.364712-17.646465-7.81326-4.306411-7.448548-3.366575-16.047342 2.062027-19.18948z" fill="#F0F1F2" p-id="7058"></path><path d="M704.582137 414.383342L399.500274 590.511342c-11.123726 6.424548-24.576 3.927671-30.032658-5.526794L253.475068 384.098192c-5.512767-9.468493-0.897753-22.359671 10.24-28.784219l305.053809-176.128c11.137753-6.424548 24.576-3.927671 30.032657 5.526794l115.992548 200.900384c5.470685 9.454466 0.897753 22.345644-10.24 28.770191z" fill="#F0F1F2" p-id="7059"></path><path d="M499.501589 296.707507a35.811945 35.811945 0 0 0 30.551671 18.025205 34.240877 34.240877 0 0 0 30.215014-17.436054c6.172055-10.927342 6.031781-24.449753-0.336658-35.489316-9.847233-17.043288-31.36526-23.061041-48.043835-13.424219-16.692603 9.636822-22.233425 31.281096-12.386192 48.324384z m97.518466 37.663561c-13.241863-7.729096-26.329425-2.062027-28.545754 12.34411l-17.379945 113.523726-145.071342-85.118246c-13.845041-7.069808-26.595945 0.280548-27.38148 15.808876l5.288329 175.679124L691.129863 389.246247l-94.095781-54.875179z" fill="#FFFFFF" p-id="7060"></path></svg>