<?xml version="1.0" standalone="no"?><!DOCTYPE svg PUBLIC "-//W3C//DTD SVG 1.1//EN" "http://www.w3.org/Graphics/SVG/1.1/DTD/svg11.dtd"><svg t="1594809249856" class="icon" viewBox="0 0 1024 1024" version="1.1" xmlns="http://www.w3.org/2000/svg" p-id="7878" xmlns:xlink="http://www.w3.org/1999/xlink" width="200" height="200"><defs><style type="text/css"></style></defs><path d="M887.296 128.512H767.36V100.48a35.968 35.968 0 0 0-71.936 0v28.032H327.936V100.48A35.968 35.968 0 1 0 256 100.48v28.032H136.128c-39.68 0-71.872 32.128-71.872 71.872V887.68c0 39.808 32.128 71.936 71.936 71.936h751.104c39.744 0 71.936-32.32 71.936-71.936V200.384c0-39.744-32.192-71.872-71.936-71.872zM256 195.392v24.96a35.968 35.968 0 1 0 71.936 0v-24.96h367.552v24.96a35.968 35.968 0 0 0 71.936 0v-24.96h124.864v124.992H131.2V195.392H256zM895.36 895.36H128.64V384.192H895.36v511.104zM288 512h63.872a32 32 0 0 1 0 64H288a32 32 0 0 1 0-63.936z m191.744 0h63.936a32 32 0 0 1 0 64h-63.872a32 32 0 0 1 0-63.936h-0.064z m191.744 0h64a32 32 0 0 1 0 64h-64a32 32 0 0 1 0-63.936zM288 705.792h64a32 32 0 0 1 0 63.936H288a32 32 0 1 1 0-63.936z m191.872 0h63.872a32 32 0 0 1 0 63.936h-64a32 32 0 1 1 0-63.936h0.128z" fill="#B2B2B2" p-id="7879"></path></svg>