<?xml version="1.0" standalone="no"?><!DOCTYPE svg PUBLIC "-//W3C//DTD SVG 1.1//EN" "http://www.w3.org/Graphics/SVG/1.1/DTD/svg11.dtd"><svg t="1593401546365" class="icon" viewBox="0 0 1024 1024" version="1.1" xmlns="http://www.w3.org/2000/svg" p-id="6848" xmlns:xlink="http://www.w3.org/1999/xlink" width="200" height="200"><defs><style type="text/css"></style></defs><path d="M192 0h485.504a64 64 0 0 1 45.248 18.752l218.496 218.496a64 64 0 0 1 18.752 45.248V960a64 64 0 0 1-64 64h-704a64 64 0 0 1-64-64v-896a64 64 0 0 1 64-64z" fill="#DCDFE6" p-id="6849"></path><path d="M192 32h482.752a32 32 0 0 1 22.624 9.376l221.248 221.248a32 32 0 0 1 9.376 22.624V960a32 32 0 0 1-32 32h-704a32 32 0 0 1-32-32v-896a32 32 0 0 1 32-32z" fill="#FFFFFF" p-id="6850"></path><path d="M224 832h640v48h-640zM224 704h448v48h-448z" fill="#DCDFE6" p-id="6851"></path><path d="M0 160m64 0l320 0q64 0 64 64l0 320q0 64-64 64l-320 0q-64 0-64-64l0-320q0-64 64-64Z" fill="#DCDFE6" p-id="6852"></path><path d="M656 0v240a64 64 0 0 0 64 64h240l-304-304z" fill="#DCDFE6" p-id="6853"></path><path d="M688 32v208a32 32 0 0 0 32 32h208l-240-240z" fill="#FFFFFF" p-id="6854"></path><path d="M238.848 295.04v150.4c0 8.992-6.176 16.32-14.912 16.32s-14.784-7.328-14.784-16.32v-153.472l-49.824 49.792c-7.456 1.6-13.216 0.384-17.344-3.744-4.128-4.096-5.344-9.856-3.648-17.28l73.184-73.184a14.816 14.816 0 0 1 10.912-4.352 14.816 14.816 0 0 1 10.944 4.352l73.184 73.184c1.696 7.424 0.448 13.184-3.648 17.28-4.128 4.128-9.92 5.376-17.344 3.744l-46.72-46.72z m-153.12 231.616a21.44 21.44 0 0 1-21.728-21.12v-106.144c0-8.736 6.144-15.808 14.848-15.808 8.736 0 14.88 7.072 14.88 15.808v101.632h260.544v-101.632c0-8.736 6.144-15.808 14.88-15.808 8.704 0 13.216 7.072 13.216 15.808v106.176a21.44 21.44 0 0 1-21.76 21.12h-274.88z" fill="#FFFFFF" p-id="6855"></path></svg>