<svg t="1590070295249" class="icon" viewBox="0 0 1024 1024" version="1.1" xmlns="http://www.w3.org/2000/svg" p-id="3558" width="200" height="200"><path d="M94.040816 0m41.795919 0l752.32653 0q41.795918 0 41.795919 41.795918l0 940.408164q0 41.795918-41.795919 41.795918l-752.32653 0q-41.795918 0-41.795919-41.795918l0-940.408164q0-41.795918 41.795919-41.795918Z" fill="#F1F1F1" p-id="3559"></path><path d="M104.489796 10.44898m41.795918 0l731.428572 0q41.795918 0 41.795918 41.795918l0 919.510204q0 41.795918-41.795918 41.795918l-731.428572 0q-41.795918 0-41.795918-41.795918l0-919.510204q0-41.795918 41.795918-41.795918Z" fill="#FFFFFF" p-id="3560"></path><path d="M188.081633 125.387755h104.489796v41.795918H188.081633zM188.081633 198.530612h292.571428v62.693878H188.081633zM543.346939 125.387755h104.489796v41.795918H543.346939zM543.346939 198.530612h292.571428v62.693878H543.346939zM188.081633 344.816327h208.979591v41.795918H188.081633zM188.081633 417.959184h647.836734v62.693877H188.081633zM188.081633 564.244898h208.979591v41.795918H188.081633zM188.081633 637.387755h647.836734v261.22449H188.081633z" fill="#F1F1F1" p-id="3561"></path></svg>