<?xml version="1.0" standalone="no"?><!DOCTYPE svg PUBLIC "-//W3C//DTD SVG 1.1//EN" "http://www.w3.org/Graphics/SVG/1.1/DTD/svg11.dtd"><svg t="1600746028920" class="icon" viewBox="0 0 1024 1024" version="1.1" xmlns="http://www.w3.org/2000/svg" p-id="8813" xmlns:xlink="http://www.w3.org/1999/xlink" width="200" height="200"><defs><style type="text/css"></style></defs><path d="M762.48576 708.15744c-61.44 61.44-146.29888 99.45088-240.00512 99.45088-93.696 0-178.56512-38.01088-240-99.45088-61.44-61.44-99.45088-146.29888-99.45088-240 0-93.70624 38.01088-178.57024 99.45088-240.00512 61.44-61.44 146.29888-99.45088 240-99.45088 93.70624 0 178.57024 38.016 240.00512 99.45088 61.44 61.44 99.45088 146.29888 99.45088 240.00512 0 93.696-38.016 178.56512-99.45088 240z" fill="#FAFAFA" p-id="8814"></path><path d="M762.48576 228.15232C815.96928 281.63584 851.7632 352.7936 860.16 432.35328c-0.44032 2.21184-0.44032 4.41856-0.88064 6.6304l-40.66304-36.24448c-0.88576-0.88064-2.21184-2.21184-3.53792-3.09248-3.5328 3.5328-6.6304 7.07072-8.84224 9.28256l-44.64128 49.9456 0.88576-64.09216c0-9.72288 0.44032-19.88608 0.44032-29.61408v-3.5328c-0.44032-0.88576-1.7664-2.65216-2.20672-3.5328-3.5328-4.42368-8.84224-8.40192-12.82048-11.93984-0.88064-0.88064-2.21184-1.7664-3.09248-2.65216l-35.35872 9.28256c-8.3968 2.21184-16.7936 3.5328-25.1904 5.74464-11.4944 2.65216-21.66272-1.7664-28.29312-10.1632a29.04576 29.04576 0 0 1-5.30432-7.51616c-0.88064-1.7664-2.20672-3.5328-3.09248-4.864-1.7664-2.64704-3.5328-5.73952-5.30432-8.83712-0.44032 4.864-1.32608 11.04896-0.88576 13.70112 0.44544 0.44544 0.88576 1.3312 1.3312 1.77152 4.41856 6.18496 9.71776 13.2608 11.9296 20.77184 2.21184 0.44032 4.864 0.44032 6.19008 0.44032l71.6032 5.74976-60.55424 35.35872c-1.7664 0.88064-3.5328 2.20672-5.30432 3.09248l-21.21728 10.60864-3.5328 1.7664c-5.30432 2.65216-11.4944 8.3968-15.47264 12.82048-7.07072 7.51104-13.70112 16.7936-18.56 25.63584l-11.4944 20.3264-1.7664-0.88064c-1.3312 1.7664-2.65216 3.09248-3.97824 4.864-4.864 6.18496-11.04896 12.37504-17.23904 17.67936l-19.00544 14.14144-3.09248-3.5328c-10.60864 3.97312-22.10304 7.0656-30.0544 8.83712-12.38016 3.09248-29.61408 6.6304-43.3152 5.30432h-0.88576l-2.65216-0.44032c-17.23904-3.5328-21.6576-19.8912-25.1904-33.152-4.42368-16.35328-7.9616-44.19584-5.74976-60.99456 0.88576-6.6304 3.09248-13.2608 4.864-19.8912 1.7664-5.30432 5.2992-16.35328 4.864-22.09792-0.44544-6.6304 0.4352-13.70112 1.76128-20.33152 0.88576-3.97824 1.3312-7.95648 2.65216-11.9296 1.3312-4.864 3.53792-9.28768 6.6304-12.82048l-0.88064-0.88576a22.84544 22.84544 0 0 1-10.60864-9.728c-3.09248-3.08736-6.19008-5.2992-11.04896-6.62528h-0.88576c-20.33152-3.97824-26.5216-21.6576-30.0544-38.01088 0-0.88576-0.44544-2.21184-0.44544-3.0976l-0.44032-2.20672v-1.7664c-0.44032-13.2608 9.28256-30.94016 15.47264-41.98912l0.44032-0.44544c4.864-8.83712 29.61408-27.40224 38.89664-34.9184l2.20672-1.7664 2.65216-1.32608c8.3968-3.97824 19.00544-9.28256 28.288-8.83712 13.2608 0.88064 14.58688 22.53824 24.30976 30.93504 16.35328 8.3968 36.24448 17.67936 44.6464 33.152l12.81536 14.58688c2.20672 4.41856-0.44544-9.28256 5.30432-7.07584l-23.86944-41.10336 5.30432-3.97824c-0.88576-0.44032-1.77152-0.88064-2.21184-1.32608l-19.44576-9.72288 7.07072-15.0272-2.65216-12.37504 9.28256-1.77152 3.5328-7.95136 16.7936 4.41856c6.1952-0.88576 12.82048-0.88576 19.01056-1.3312 3.5328 0 10.60864-0.4352 17.23904-1.32096l-30.94016-35.80416c2.20672 0 4.41856 0 6.6304 0.44544l-1.3312-1.77152c66.74432 13.2608 126.85824 46.4128 173.2608 92.8256z m-191.82592 31.82592c3.5328 1.32096 24.30976-2.65216 27.84768-2.21184h1.7664c1.32608 0 4.41856-2.21184 5.74464-2.65216 1.3312-0.88576 3.0976-2.21184 3.97824-3.5328v-0.44544c0-1.32608-0.44032-2.21184-1.32608-3.5328a5.6064 5.6064 0 0 0-3.97824-1.77152h-0.44032l-33.152 14.14656h-0.44032zM245.79584 528.26624c0.44032-8.3968-1.7664-16.7936-3.0976-24.30976-2.64704-15.0272-5.2992-32.26624 2.21184-46.40768l1.32608-2.65216c11.04896-20.33152 26.96192-45.08672 50.83136-52.15744 7.51104-2.21184 15.0272-2.65216 22.09792 0 7.51616 2.65216 14.14656 7.95648 17.67936 15.0272 9.728 18.56512 2.21184 41.98912-6.18496 60.1088-7.51616 15.91296-11.4944 27.8528-13.70112 45.08672-1.77152 11.4944-3.97824 21.21728-7.9616 32.26624-12.37504 31.8208 1.3312 79.11936 10.16832 110.49984 6.6304 22.53824 8.84224 59.66848 11.9296 83.97824a311.552 311.552 0 0 1-57.89696-49.9456c-77.34784-91.93472-86.19008-160.44544-90.1632-214.36928l57.89696 38.4512c0.88576 1.3312 2.65216 3.0976 4.41856 4.864l0.44544-0.44032z" fill="#F0F1F2" p-id="8815"></path><path d="M581.26848 648.3712h0.44032c-1.7664-0.67584-2.20672-1.34656-0.44032 0z" fill="#558B2F" p-id="8816"></path><path d="M762.48576 708.15744c-61.44 61.44-146.29888 99.45088-240.00512 99.45088V128.70144c93.70624 0 178.57024 38.016 240.00512 99.45088 61.44 61.44 99.45088 146.29888 99.45088 240.00512 0 93.696-38.016 178.56512-99.45088 240z" fill="#FAFAFA" p-id="8817"></path><path d="M589.22496 135.33184c66.7392 13.2608 126.85312 46.4128 173.2608 92.8256C815.96928 281.63072 851.7632 352.78848 860.16 432.34816c-0.44032 2.21184-0.44032 4.41856-0.88064 6.6304l-40.66304-36.24448c-0.88576-0.88064-2.21184-2.21184-3.53792-3.09248-3.5328 3.5328-6.6304 7.07072-8.84224 9.28256l-44.64128 49.9456 0.88576-64.09216c0-9.72288 0.44032-19.88608 0.44032-29.61408v-3.5328c-0.44032-0.88576-1.7664-2.65216-2.20672-3.5328-3.5328-4.42368-8.84224-8.40192-12.82048-11.93984-0.88064-0.88064-2.21184-1.7664-3.09248-2.65216l-35.35872 9.28256c-8.3968 2.21184-16.7936 3.5328-25.1904 5.74464-11.4944 2.65216-21.66272-1.7664-28.29312-10.1632a29.04576 29.04576 0 0 1-5.30432-7.51616c-0.88064-1.7664-2.20672-3.5328-3.09248-4.864-1.7664-2.64704-3.5328-5.73952-5.30432-8.83712-0.44032 4.864-1.32608 11.04896-0.88576 13.70112 0.44544 0.44544 0.88576 1.3312 1.3312 1.77152 4.41856 6.18496 9.71776 13.2608 11.9296 20.77184 2.21184 0.44032 4.864 0.44032 6.19008 0.44032l71.6032 5.74976-60.55424 35.35872c-1.7664 0.88064-3.5328 2.20672-5.30432 3.09248l-21.21728 10.60864-3.5328 1.7664c-5.30432 2.65216-11.4944 8.3968-15.47264 12.82048-7.07072 7.51104-13.70112 16.7936-18.56 25.63584l-11.4944 20.3264-1.7664-0.88064c-1.3312 1.7664-2.65216 3.09248-3.97824 4.864-4.864 6.18496-11.04896 12.37504-17.23904 17.67936l-19.00544 14.14144-3.09248-3.5328c-10.16832 3.5328-20.77696 6.62528-28.73344 8.83712V223.73376c15.91296 8.3968 35.80416 17.67936 43.76064 32.26624l12.81536 14.58176c2.21184 4.42368-0.44032-9.27744 5.30432-7.0656l-23.86432-41.1136 5.30432-3.97312c-0.88576-0.44032-1.77152-0.88576-2.21184-1.32608l-19.45088-9.728 7.07584-15.02208-2.65216-12.38016 9.28256-1.7664 3.5328-7.95648 16.7936 4.41856c6.1952-0.88064 12.82048-0.88064 19.01056-1.32096 3.5328 0 10.60864-0.44544 17.23392-1.3312l-30.93504-35.79904c2.20672 0 4.41856 0 6.6304 0.44032l-0.88576-1.32608z m-18.56512 124.6464c3.5328 1.32096 24.30976-2.65216 27.84768-2.21184h1.7664c1.32608 0 4.41856-2.21184 5.74464-2.65216 1.3312-0.88576 3.0976-2.21184 3.97824-3.5328v-0.44544c0-1.32608-0.44032-2.21184-1.32608-3.5328a5.6064 5.6064 0 0 0-3.97824-1.77152h-0.44032l-33.152 14.14656h-0.44032z m10.60864 388.39296h0.44032c-1.7664-0.67584-2.20672-1.34656-0.44032 0z" fill="#F0F1F2" p-id="8818"></path><path d="M621.4912 581.30432v14.14656c0 9.28256-44.20096 22.98368-46.85312 41.10336l4.41856 2.65216c22.10304 12.82048-85.74464 49.9456-1.7664 70.27712 3.5328 0.88576 40.66304 0.44032 44.20096-0.44032 5.74464-56.576-23.42912-32.26624 14.14144-56.576 3.5328-2.21184-2.20672-13.2608 1.3312-12.82048 38.89152-59.66848 22.0928-104.7552 5.2992-101.6576-5.30432 0.88576-20.77184 12.82048-20.77184 43.75552v-0.44032z" fill="#F0F1F2" p-id="8819"></path><path d="M254.0288 463.06304c-96.4096-60.19584-140.288-108.0576-152.2176-130.03776 11.6992-2.92352-8.77568-9.74848 71.168 8.77568 15.60064 3.90144 31.20128-5.84704 34.1248-21.4528 3.90144-15.59552-5.84704-31.19616-21.44768-34.11968-93.51168-16.86016-122.84416-16.57344-140.3904 22.4256-16.57344 38.99904 15.21664 70.912 86.76864 136.49408 11.2896 10.3424 47.7952 35.2 95.35488 64.3584 63.1296 38.7072 79.9232-13.17376 26.63936-46.4384z" fill="#E6E6E6" p-id="8820"></path><path d="M881.024 751.58528c42.89536 0 67.27168-11.6992 77.02016-35.0976 18.52416-42.89536-33.14688-89.69728-74.09664-120.89344-12.672-9.74848-30.22336-7.79776-39.97184 4.87424-9.74848 12.67712-7.80288 30.22336 4.87424 39.97184 35.0976 27.29984 48.7424 43.8784 53.62176 52.64896-38.02112 9.74848-193.03936-15.60064-442.624-123.81696-33.98144-14.73536-63.31392-29.7472-93.568-43.4176-58.74176-26.55744-84.2752 19.8656-17.71008 53.38112 30.93504 15.57504 60.07808 30.57664 87.87456 42.68032 120.89344 52.64896 238.86336 93.5936 332.45696 114.0736 45.824 10.72128 82.87232 15.59552 112.12288 15.59552z" fill="#EEEEEE" p-id="8821"></path><path d="M518.82496 844.59008c62.0032 0 112.26112 18.52416 112.26112 41.28768s-50.25792 41.28768-112.26112 41.28768c-62.00832 0-112.256-18.52416-112.256-41.28768s50.29376-41.28768 112.256-41.28768z" fill="#F0F1F2" p-id="8822"></path></svg>