<?xml version="1.0" standalone="no"?><!DOCTYPE svg PUBLIC "-//W3C//DTD SVG 1.1//EN" "http://www.w3.org/Graphics/SVG/1.1/DTD/svg11.dtd"><svg t="1593586748952" class="icon" viewBox="0 0 1024 1024" version="1.1" xmlns="http://www.w3.org/2000/svg" p-id="6731" xmlns:xlink="http://www.w3.org/1999/xlink" width="200" height="200"><defs><style type="text/css"></style></defs><path d="M512 585.386667a73.130667 73.130667 0 1 0 0-146.304 73.130667 73.130667 0 0 0 0 146.304z m0-195.029334a122.026667 122.026667 0 0 1 121.898667 121.898667A122.026667 122.026667 0 0 1 512 634.154667a122.026667 122.026667 0 0 1-121.898667-121.898667A122.026667 122.026667 0 0 1 512 390.357333z m0 341.333334c161.578667 0 292.565333-195.072 292.565333-219.434667 0-24.405333-130.986667-219.434667-292.565333-219.434667-161.578667 0-292.565333 195.029333-292.565333 219.434667 0 24.362667 130.986667 219.434667 292.565333 219.434667zM512 244.053333c187.989333 0 341.333333 215.637333 341.333333 268.202667 0 52.565333-153.344 268.16-341.333333 268.16-187.989333 0-341.333333-215.594667-341.333333-268.16 0-52.565333 153.344-268.202667 341.333333-268.202667z" p-id="6732"></path></svg>