<svg t="1594292114983" class="icon" viewBox="0 0 1024 1024" version="1.1" xmlns="http://www.w3.org/2000/svg" p-id="7196" width="200" height="200"><path d="M274.474667 849.749333a103.594667 103.594667 0 0 1-103.637334-103.637333V274.645333A103.594667 103.594667 0 0 1 274.474667 171.093333h471.466666a103.850667 103.850667 0 0 1 103.552 103.594667v471.466667a103.594667 103.594667 0 0 1-103.594666 103.594666H274.432z m-0.426667-629.76c-35.712 0-57.856 18.944-57.856 54.698667v471.850667c0 35.712 22.144 57.472 57.856 57.472h471.893333c35.712 0 58.069333-21.76 58.069334-57.472V274.645333c0-35.712-22.357333-54.656-58.112-54.656H274.048z m55.04 476.330667a19.285333 19.285333 0 0 1-13.653333-32.896l33.706666-33.749333-33.706666-33.706667a19.157333 19.157333 0 0 1 0-27.306667 19.114667 19.114667 0 0 1 13.653333-5.632c5.205333 0 10.026667 2.005333 13.653333 5.589334l33.706667 33.706666 33.706667-33.706666a19.157333 19.157333 0 0 1 27.306666 0 19.157333 19.157333 0 0 1 0 27.306666l-34.133333 33.706667 34.133333 33.792a19.157333 19.157333 0 0 1 0 27.306667 19.114667 19.114667 0 0 1-13.653333 5.589333 19.114667 19.114667 0 0 1-13.653333-5.589333l-33.706667-33.749334-33.706667 33.706667a20.608 20.608 0 0 1-13.653333 5.632z m46.165333-233.685333a19.285333 19.285333 0 0 1-19.285333-19.285334V395.093333h-48.213333a19.285333 19.285333 0 0 1 0-38.528h48.213333v-48.213333a19.029333 19.029333 0 0 1 20.053333-18.432c10.069333 0.384 18.517333 8.405333 18.517334 18.474667v48.170666h48.213333a19.285333 19.285333 0 0 1 0 38.528h-48.213333v48.213334a19.285333 19.285333 0 0 1-19.285334 19.285333z m201.984-67.498667a19.285333 19.285333 0 0 1 0-38.528h134.912a19.285333 19.285333 0 0 1 0 38.528H577.28z m67.456 302.805333a19.285333 19.285333 0 1 1 19.285334-19.285333c0 6.826667-3.626667 13.226667-9.642667 16.853333a19.072 19.072 0 0 1-9.642667 2.432z m0-100.778666a19.285333 19.285333 0 1 1 19.285334-19.285334c0 6.826667-3.626667 13.226667-9.642667 16.853334a19.072 19.072 0 0 1-9.642667 2.432z m-67.413333 50.56a19.029333 19.029333 0 0 1-18.517333-20.053334 18.944 18.944 0 0 1 18.474666-18.474666h134.912c10.88 0.426667 18.901333 9.216 18.474667 20.053333a18.944 18.944 0 0 1-18.474667 18.474667H577.28z" fill="#B2B2B2" p-id="7197"></path></svg>