<?xml version="1.0" standalone="no"?><!DOCTYPE svg PUBLIC "-//W3C//DTD SVG 1.1//EN" "http://www.w3.org/Graphics/SVG/1.1/DTD/svg11.dtd"><svg t="1593498628616" class="icon" viewBox="0 0 1024 1024" version="1.1" xmlns="http://www.w3.org/2000/svg" p-id="7575" xmlns:xlink="http://www.w3.org/1999/xlink" width="200" height="200"><defs><style type="text/css"></style></defs><path d="M391.125333 345.344l119.893334-119.936 119.936 119.893333a22.613333 22.613333 0 0 0 32.128 0 22.656 22.656 0 0 0 0-32l-135.978667-136.021333a22.656 22.656 0 0 0-32.042667 0L359.082667 313.301333a22.656 22.656 0 0 0 32 32z m239.829334 330.453333l-119.893334 119.936-119.936-119.893333a22.656 22.656 0 0 0-32.042666 32l135.978666 135.978667a22.613333 22.613333 0 0 0 32.085334 0l135.850666-135.978667a22.656 22.656 0 0 0-32-32z m-369.365334-211.029333h498.901334a22.613333 22.613333 0 1 0 0-45.312H261.589333a22.613333 22.613333 0 1 0 0 45.312z m498.901334 90.709333H261.589333a22.613333 22.613333 0 1 0 0 45.312h498.901334a22.613333 22.613333 0 1 0 0-45.312z" fill="#B2B2B2" p-id="7576"></path></svg>