<?xml version="1.0" standalone="no"?><!DOCTYPE svg PUBLIC "-//W3C//DTD SVG 1.1//EN" "http://www.w3.org/Graphics/SVG/1.1/DTD/svg11.dtd"><svg t="1593402788971" class="icon" viewBox="0 0 1024 1024" version="1.1" xmlns="http://www.w3.org/2000/svg" p-id="7676" xmlns:xlink="http://www.w3.org/1999/xlink" width="200" height="200"><defs><style type="text/css"></style></defs><path d="M785.792 284.586667H554.666667c-14.208 0-25.685333-9.685333-25.685334-21.76 0-11.989333 11.477333-21.674667 25.685334-21.674667h231.04c14.208 0 25.685333 9.685333 25.685333 21.717333 0.128 12.032-11.349333 21.717333-25.557333 21.717334z m0 173.781333H554.666667c-14.208 0-25.685333-9.685333-25.685334-21.76 0-11.989333 11.477333-21.674667 25.685334-21.674667h231.04c14.208 0 25.642667 9.685333 25.642666 21.717334 0 12.032-11.306667 21.717333-25.514666 21.717333z m0 161.066667H554.666667c-14.208 0-25.685333-9.685333-25.685334-21.717334 0-12.032 11.477333-21.717333 25.685334-21.717333h231.04c14.208 0 25.642667 9.685333 25.642666 21.717333 0 12.032-11.306667 21.76-25.514666 21.76z m0 170.24H554.666667c-14.208 0-25.685333-9.685333-25.685334-21.717334 0-12.032 11.477333-21.717333 25.685334-21.717333h231.04c14.208 0 25.642667 9.685333 25.642666 21.717333 0 12.032-11.306667 21.76-25.514666 21.76z m-376.32-315.008H279.168a65.194667 65.194667 0 0 1-65.152-65.194667V279.168c0-35.968 29.184-65.152 65.152-65.152h130.304c35.968 0 65.194667 29.184 65.194667 65.152v130.304c0 35.968-29.226667 65.194667-65.194667 65.194667zM279.168 257.450667c-11.946667 0-21.76 9.813333-21.76 21.717333v130.304c0 11.946667 9.813333 21.76 21.76 21.76h130.304c11.946667 0 21.76-9.813333 21.76-21.76V279.168c0-11.946667-9.813333-21.76-21.76-21.76H279.168z m130.304 553.728H279.168a65.194667 65.194667 0 0 1-65.152-65.152v-130.474667c0-35.968 29.184-65.152 65.152-65.152h130.304c35.968 0 65.194667 29.184 65.194667 65.152v130.346667a65.28 65.28 0 0 1-65.194667 65.28zM279.168 593.92a21.76 21.76 0 0 0-21.76 21.717333v130.346667c0 11.989333 9.813333 21.717333 21.76 21.717333h130.304a21.76 21.76 0 0 0 21.76-21.76V615.68a21.76 21.76 0 0 0-21.76-21.717333H279.168z" p-id="7677"></path></svg>