<?xml version="1.0" standalone="no"?><!DOCTYPE svg PUBLIC "-//W3C//DTD SVG 1.1//EN" "http://www.w3.org/Graphics/SVG/1.1/DTD/svg11.dtd"><svg t="1593403835197" class="icon" viewBox="0 0 1024 1024" version="1.1" xmlns="http://www.w3.org/2000/svg" p-id="6577" xmlns:xlink="http://www.w3.org/1999/xlink" width="200" height="200"><defs><style type="text/css"></style></defs><path d="M230.272 812.032a37.76 37.76 0 0 1-38.272-37.248v-225.109333c0-15.36 10.794667-27.818667 26.197333-27.818667 15.36 0 26.197333 12.458667 26.197334 27.818667v217.173333h535.210666v-217.173333c0-15.36 10.837333-27.818667 26.197334-27.818667s23.296 12.458667 23.296 27.818667v225.109333a37.76 37.76 0 0 1-38.272 37.248H230.272z" p-id="6578"></path><path d="M485.802667 218.709333v369.493334c0 15.872 10.666667 28.757333 26.069333 28.757333 15.36 0 26.325333-12.885333 26.325333-28.714667V219.818667c-4.053333-13.653333-12.8-20.48-26.197333-20.48-13.44 0-22.186667 6.485333-26.197333 19.370666z" p-id="6579"></path><path d="M640.384 432.384l-150.058667 150.058667c-3.285333 13.354667-1.28 23.637333 5.973334 30.890666 7.253333 7.253333 17.621333 9.301333 31.061333 6.144l150.058667-150.058666a26.197333 26.197333 0 1 0-37.034667-37.034667z" p-id="6580"></path><path d="M384.085333 432.384l150.058667 150.058667c3.242667 13.354667 1.28 23.637333-5.973333 30.890666-7.253333 7.253333-17.621333 9.301333-31.061334 6.144l-150.058666-150.058666a26.197333 26.197333 0 1 1 37.034666-37.034667z" p-id="6581"></path></svg>