<?xml version="1.0" standalone="no"?><!DOCTYPE svg PUBLIC "-//W3C//DTD SVG 1.1//EN" "http://www.w3.org/Graphics/SVG/1.1/DTD/svg11.dtd"><svg t="1603792440142" class="icon" viewBox="0 0 1024 1024" version="1.1" xmlns="http://www.w3.org/2000/svg" p-id="17760" xmlns:xlink="http://www.w3.org/1999/xlink" width="200" height="200"><defs><style type="text/css"></style></defs><path d="M845.952 794.24l-30.976-218.304c-3.68-21.824-23.04-37.76-45.76-37.76h-119.872l30.144-37.024c1.28-1.696 2.336-3.52 3.52-5.344a199.2 199.2 0 0 0 37.184-115.904c0-112.288-93.44-203.36-208.64-203.36-115.264 0-208.64 91.072-208.64 203.36 0 43.04 13.76 82.944 37.184 115.84 1.024 1.856 2.208 3.68 3.52 5.408l30.112 37.056H253.984a46.08 46.08 0 0 0-45.76 37.76l-31.008 218.24c-4.64 27.584 17.152 52.672 45.76 52.672h577.28c28.64 0 50.432-25.088 45.664-52.672zM349.344 379.968c0-87.2 72.832-158.144 162.304-158.144 89.472 0 162.304 70.944 162.304 158.144a154.464 154.464 0 0 1-28.992 90.176l-1.152 1.696-1.024 1.664-0.512 0.8-52.032 63.84-36.864 45.184-41.824 51.296-41.76-51.296-36.864-45.184-51.936-63.712-0.672-1.152-1.056-1.664-1.152-1.6a155.296 155.296 0 0 1-28.736-90.048zM223.04 801.664l30.944-218.272h156.704l75.232 92.288c7.2 8.96 16.48 13.44 25.856 13.44 9.376 0 18.688-4.48 25.856-13.44l75.232-92.288h156.736l30.944 218.272H223.04h0.032z" fill="#B2B2B2" p-id="17761"></path><path d="M511.68 461.376c46.112 0 83.424-36.384 83.424-81.344 0-44.96-37.312-81.344-83.456-81.344-46.144 0-83.456 36.384-83.456 81.344 0 44.96 37.344 81.344 83.488 81.344z m0-117.504c20.384 0 37.056 16.256 37.056 36.16 0 19.872-16.704 36.16-37.088 36.16s-37.088-16.288-37.088-36.16c0-19.904 16.704-36.16 37.12-36.16z" fill="#B2B2B2" p-id="17762"></path></svg>