<?xml version="1.0" standalone="no"?><!DOCTYPE svg PUBLIC "-//W3C//DTD SVG 1.1//EN" "http://www.w3.org/Graphics/SVG/1.1/DTD/svg11.dtd"><svg t="1593401554392" class="icon" viewBox="0 0 1024 1024" version="1.1" xmlns="http://www.w3.org/2000/svg" p-id="6986" xmlns:xlink="http://www.w3.org/1999/xlink" width="200" height="200"><defs><style type="text/css"></style></defs><path d="M192 0h485.504a64 64 0 0 1 45.248 18.752l218.496 218.496A64 64 0 0 1 960 282.496V960a64 64 0 0 1-64 64H192a64 64 0 0 1-64-64V64a64 64 0 0 1 64-64z" fill="#DCDFE6" p-id="6987"></path><path d="M192 32h482.752a32 32 0 0 1 22.624 9.376l221.248 221.248a32 32 0 0 1 9.376 22.624V960a32 32 0 0 1-32 32H192a32 32 0 0 1-32-32V64a32 32 0 0 1 32-32z" fill="#FFFFFF" p-id="6988"></path><path d="M224 832h640v48H224zM224 704h448v48H224z" fill="#DCDFE6" p-id="6989"></path><path d="M0 160m64 0l320 0q64 0 64 64l0 320q0 64-64 64l-320 0q-64 0-64-64l0-320q0-64 64-64Z" fill="#B2B2B2" p-id="6990"></path><path d="M656 0v240a64 64 0 0 0 64 64H960L656 0z" fill="#DCDFE6" p-id="6991"></path><path d="M688 32v208a32 32 0 0 0 32 32H928L688 32z" fill="#FFFFFF" p-id="6992"></path><path d="M185.568 503.36a24.64 24.64 0 1 1 49.312 0 24.64 24.64 0 0 1-49.312 0z m24.64-263.36a82.336 82.336 0 0 1 82.24 82.24c0 37.056-22.144 57.28-39.936 73.6-16 14.624-25.824 24.448-25.824 40.576a16.416 16.416 0 1 1-32.896 0c0-31.456 19.424-49.184 36.544-64.864 16.32-14.944 29.216-26.752 29.216-49.312 0-27.2-22.144-49.344-49.312-49.344-27.2 0-49.344 22.144-49.344 49.344a16.416 16.416 0 1 1-32.896 0A82.336 82.336 0 0 1 210.24 240z" fill="#FFFFFF" p-id="6993"></path></svg>