<?xml version="1.0" standalone="no"?><!DOCTYPE svg PUBLIC "-//W3C//DTD SVG 1.1//EN" "http://www.w3.org/Graphics/SVG/1.1/DTD/svg11.dtd"><svg t="1604542195932" class="icon" viewBox="0 0 1024 1024" version="1.1" xmlns="http://www.w3.org/2000/svg" p-id="18239" xmlns:xlink="http://www.w3.org/1999/xlink" width="32" height="32"><defs><style type="text/css"></style></defs><path d="M876.96 392.128l-129.856-139.2a23.264 23.264 0 0 0-16.96-7.36h-193.632l-0.736-47.808c0-12.032-10.4-21.76-23.2-21.76-12.8 0-21.76 9.728-21.76 21.76l-0.704 47.84H234.4c-12.8 0-23.2 10.368-23.2 23.2v278.368c0 12.8 10.368 23.168 23.2 23.168h255.424v259.04c0 12 10.4 21.76 23.2 21.76 12.8 0 23.2-9.76 23.2-21.76v-259.04h193.92a23.264 23.264 0 0 0 16.96-7.36l129.856-139.2a23.232 23.232 0 0 0 0-31.648z m-156.896 131.84H257.6v-232h462.464l108.224 116-108.224 116z" fill="#B2B2B2" p-id="18240"></path></svg>