<svg t="1593655894150" class="icon" viewBox="0 0 1024 1024" version="1.1" xmlns="http://www.w3.org/2000/svg" p-id="6741" width="200" height="200"><path d="M216.192 260.352v514.304h591.616V260.352H216.192z m-25.173333-46.848h639.616c10.88 0 19.712 8.789333 19.712 19.669333v565.802667a19.669333 19.669333 0 0 1-19.712 19.712H191.061333a19.669333 19.669333 0 0 1-19.712-19.712V233.216c0-10.922667 8.832-19.712 19.669334-19.712z" fill="#B2B2B2" p-id="6742"></path><path d="M191.018667 427.989333a19.669333 19.669333 0 1 1 0-39.381333h639.616a19.669333 19.669333 0 1 1 0 39.381333H191.061333z m0 215.552a19.669333 19.669333 0 0 1 0-39.381333h639.616a19.669333 19.669333 0 0 1 0 39.381333H191.061333z" fill="#B2B2B2" p-id="6743"></path><path d="M380.458667 417.621333a19.669333 19.669333 0 1 1 39.381333 0v381.354667a19.669333 19.669333 0 0 1-39.381333 0V417.621333z m221.44 0a19.669333 19.669333 0 0 1 39.338666 0v381.354667a19.669333 19.669333 0 0 1-39.381333 0V417.621333z" fill="#B2B2B2" p-id="6744"></path></svg>