<svg t="1593578274054" class="icon" viewBox="0 0 1024 1024" version="1.1" xmlns="http://www.w3.org/2000/svg" p-id="6791" width="200" height="200"><path d="M753.493333 807.509333H276.309333c-34.645333 0-62.805333-28.16-62.805333-62.72V267.52c0-34.645333 28.202667-58.496 62.805333-58.496h313.856c14.634667 0 26.581333 9.6 26.581334 24.32s-11.904 24.576-26.581334 24.576H276.309333c-5.333333 0-13.909333 4.352-13.909333 9.642667v477.141333c0 5.290667 8.576 13.866667 13.909333 13.866667H753.493333c5.290667 0 9.642667-8.533333 9.642667-13.866667V388.309333c0-14.634667 7.68-26.581333 22.357333-26.581333 14.72 0 25.173333 11.861333 25.173334 26.581333v356.437334c-0.042667 34.645333-22.613333 62.762667-57.173334 62.762666zM535.552 490.666667a26.581333 26.581333 0 0 1-18.773333-45.397334l245.461333-245.504a26.624 26.624 0 0 1 37.546667 37.546667l-245.504 245.546667a26.453333 26.453333 0 0 1-18.730667 7.808z" fill="currentColor" p-id="6792"></path></svg>