<?xml version="1.0" standalone="no"?><!DOCTYPE svg PUBLIC "-//W3C//DTD SVG 1.1//EN" "http://www.w3.org/Graphics/SVG/1.1/DTD/svg11.dtd"><svg t="1593401570868" class="icon" viewBox="0 0 1024 1024" version="1.1" xmlns="http://www.w3.org/2000/svg" p-id="7400" xmlns:xlink="http://www.w3.org/1999/xlink" width="200" height="200"><defs><style type="text/css"></style></defs><path d="M192 0h485.504a64 64 0 0 1 45.248 18.752l218.496 218.496A64 64 0 0 1 960 282.496V960a64 64 0 0 1-64 64H192a64 64 0 0 1-64-64V64a64 64 0 0 1 64-64z" fill="#DCDFE6" p-id="7401"></path><path d="M192 32h482.752a32 32 0 0 1 22.624 9.376l221.248 221.248a32 32 0 0 1 9.376 22.624V960a32 32 0 0 1-32 32H192a32 32 0 0 1-32-32V64a32 32 0 0 1 32-32z" fill="#FFFFFF" p-id="7402"></path><path d="M224 832h640v48H224zM224 704h448v48H224z" fill="#DCDFE6" p-id="7403"></path><path d="M0 160m64 0l320 0q64 0 64 64l0 320q0 64-64 64l-320 0q-64 0-64-64l0-320q0-64 64-64Z" fill="#8B572A" p-id="7404"></path><path d="M656 0v240a64 64 0 0 0 64 64H960L656 0z" fill="#DCDFE6" p-id="7405"></path><path d="M688 32v208a32 32 0 0 0 32 32H928L688 32z" fill="#FFFFFF" p-id="7406"></path><path d="M131.52 160h49.28v43.104H131.52V160z m49.28 43.104h49.28v43.136H180.8V203.136zM131.52 246.272h49.28v43.136H131.52V246.24z m49.28 43.136h49.28v43.104H180.8V289.376zM131.52 332.48h49.28v43.136H131.52V332.48z m49.28 43.136h49.28v43.104H180.8v-43.136z m-49.28 43.104v86.24h98.56v-86.24H131.52z m82.112 71.872H147.968v-28.768h65.664v28.8z" fill="#FFFFFF" p-id="7407"></path></svg>