<?xml version="1.0" standalone="no"?><!DOCTYPE svg PUBLIC "-//W3C//DTD SVG 1.1//EN" "http://www.w3.org/Graphics/SVG/1.1/DTD/svg11.dtd"><svg t="1593617263757" class="icon" viewBox="0 0 1024 1024" version="1.1" xmlns="http://www.w3.org/2000/svg" p-id="6865" xmlns:xlink="http://www.w3.org/1999/xlink" width="200" height="200"><defs><style type="text/css"></style></defs><path d="M768 170.666667H256c-46.933333 0-85.333333 38.4-85.333333 85.333333v512c0 46.933333 38.4 85.333333 85.333333 85.333333h512c46.933333 0 85.333333-38.4 85.333333-85.333333V256c0-46.933333-38.4-85.333333-85.333333-85.333333z m34.133333 597.333333a34.56 34.56 0 0 1-34.133333 34.133333H256a34.56 34.56 0 0 1-34.133333-34.133333V256c0-18.517333 15.658667-34.133333 34.133333-34.133333h512c18.517333 0 34.133333 15.658667 34.133333 34.133333v512z" fill="#B2B2B2" p-id="6866"></path></svg>