<?xml version="1.0" standalone="no"?><!DOCTYPE svg PUBLIC "-//W3C//DTD SVG 1.1//EN" "http://www.w3.org/Graphics/SVG/1.1/DTD/svg11.dtd"><svg t="1593617269138" class="icon" viewBox="0 0 1024 1024" version="1.1" xmlns="http://www.w3.org/2000/svg" p-id="6999" xmlns:xlink="http://www.w3.org/1999/xlink" width="200" height="200"><defs><style type="text/css"></style></defs><path d="M294.784 170.666667h434.432C811.989333 170.666667 853.333333 212.053333 853.333333 294.784v434.432c0 82.773333-41.386667 124.117333-124.117333 124.117333H294.784C212.010667 853.333333 170.666667 811.946667 170.666667 729.216V294.784C170.666667 212.010667 212.053333 170.666667 294.784 170.666667z m407.722667 254.72l-0.042667-0.042667a5.418667 5.418667 0 0 0 0-7.466667l-31.018667-32.341333a4.906667 4.906667 0 0 0-7.125333 0l-190.293333 198.357333-93.013334-97.024a4.906667 4.906667 0 0 0-7.168 0l-31.018666 32.341334a5.418667 5.418667 0 0 0 0 7.466666l127.658666 133.12a4.906667 4.906667 0 0 0 7.168 0l224.853334-234.410666z" fill="#027AFF" p-id="7000"></path></svg>