<svg t="1593849758962" class="icon" viewBox="0 0 1024 1024" version="1.1" xmlns="http://www.w3.org/2000/svg" p-id="6994" width="200" height="200"><path d="M511.658667 149.333333C312.149333 149.333333 149.333333 311.253333 149.333333 511.658667c0 199.552 161.92 362.368 362.325334 362.368 199.552 0 362.368-161.92 362.368-362.368 0-199.509333-162.005333-362.325333-362.368-362.325334z m0 673.450667a311.04 311.04 0 0 1-311.082667-311.125333 311.04 311.04 0 0 1 311.082667-311.082667 311.04 311.04 0 0 1 311.125333 311.082667 311.04 311.04 0 0 1-311.125333 311.125333z m185.472-146.688a188.032 188.032 0 0 0-106.24-124.330667 138.965333 138.965333 0 0 0 64.469333-117.333333c0-76.8-62.421333-139.221333-139.221333-139.221333a139.349333 139.349333 0 0 0-139.264 139.221333c0 49.578667 25.6 92.928 64.426666 117.333333a186.666667 186.666667 0 0 0-106.581333 124.330667c-3.328 13.226667 4.522667 26.88 17.706667 30.208a24.704 24.704 0 0 0 30.208-17.792 137.472 137.472 0 0 1 266.154666 0c3.328 13.141333 16.938667 20.992 30.208 17.706667a24.362667 24.362667 0 0 0 18.133334-30.122667zM516.266667 344.746667c49.493333 0 89.6 40.106667 89.6 89.6 0 49.578667-40.106667 89.6-89.6 89.6-49.578667 0-89.6-40.021333-89.6-89.6 0-49.493333 40.021333-89.6 89.6-89.6z" fill="#B2B2B2" p-id="6995"></path></svg>