<?xml version="1.0" standalone="no"?><!DOCTYPE svg PUBLIC "-//W3C//DTD SVG 1.1//EN" "http://www.w3.org/Graphics/SVG/1.1/DTD/svg11.dtd"><svg t="1593502030709" class="icon" viewBox="0 0 1024 1024" version="1.1" xmlns="http://www.w3.org/2000/svg" p-id="7709" xmlns:xlink="http://www.w3.org/1999/xlink" width="200" height="200"><defs><style type="text/css"></style></defs><path d="M512 1003.52c-271.44192 0-491.52-220.07808-491.52-491.52S240.55808 20.48 512 20.48s491.52 220.07808 491.52 491.52-220.07808 491.52-491.52 491.52z m0-40.96c248.832 0 450.56-201.728 450.56-450.56s-201.728-450.56-450.56-450.56-450.56 201.728-450.56 450.56 201.728 450.56 450.56 450.56z" fill="#B2B2B2" p-id="7710"></path><path d="M491.52 491.52V249.15968c0-13.18912 11.01824-23.87968 24.576-23.87968 13.55776 0 24.576 10.69056 24.576 23.87968V491.52h234.16832c13.18912 0 23.87968 11.01824 23.87968 24.576 0 13.55776-10.69056 24.576-23.87968 24.576H540.672v234.16832a24.24832 24.24832 0 0 1-24.576 23.87968 24.24832 24.24832 0 0 1-24.576-23.87968V540.672H249.15968A24.24832 24.24832 0 0 1 225.28 516.096c0-13.55776 10.69056-24.576 23.87968-24.576H491.52z" fill="#B2B2B2" p-id="7711"></path></svg>