<?xml version="1.0" standalone="no"?><!DOCTYPE svg PUBLIC "-//W3C//DTD SVG 1.1//EN" "http://www.w3.org/Graphics/SVG/1.1/DTD/svg11.dtd"><svg t="1600675775183" class="icon" viewBox="0 0 1024 1024" version="1.1" xmlns="http://www.w3.org/2000/svg" p-id="8737" xmlns:xlink="http://www.w3.org/1999/xlink" width="200" height="200"><defs><style type="text/css"></style></defs><path d="M433.834667 477.226667a109.952 109.952 0 1 0 0-219.904 109.952 109.952 0 0 0 0 219.904z m-85.888 17.536A151.893333 151.893333 0 0 1 279.893333 367.274667a153.941333 153.941333 0 1 1 307.882667 0 151.893333 151.893333 0 0 1-68.053333 127.488 218.709333 218.709333 0 0 1 134.016 202.368v43.989333a66.261333 66.261333 0 0 1-65.962667 66.56H279.893333a66.261333 66.261333 0 0 1-65.962666-66.56v-43.946667a218.709333 218.709333 0 0 1 133.973333-202.410666z m239.786666 267.477333c12.16 0 22.016-9.856 22.016-22.016v-43.093333a175.914667 175.914667 0 1 0-351.872 0v43.989333c0 12.16 9.856 22.016 22.016 22.016l307.882667-0.896z m45.226667-493.909333a121.258667 121.258667 0 0 1 74.581333 215.466666 173.866667 173.866667 0 0 1 100.736 158.378667v43.946667a66.261333 66.261333 0 0 1-65.962666 66.005333h-33.578667a21.973333 21.973333 0 0 1 0-43.989333h32.981333a21.973333 21.973333 0 0 0 21.973334-21.973334V642.133333a132.266667 132.266667 0 0 0-130.730667-131.669333 21.973333 21.973333 0 0 1 0-43.946667 76.970667 76.970667 0 0 0 0-153.984 21.973333 21.973333 0 0 1 0-43.946666v-0.298667z" p-id="8738"></path></svg>