<?xml version="1.0" standalone="no"?><!DOCTYPE svg PUBLIC "-//W3C//DTD SVG 1.1//EN" "http://www.w3.org/Graphics/SVG/1.1/DTD/svg11.dtd"><svg t="1594808910250" class="icon" viewBox="0 0 1024 1024" version="1.1" xmlns="http://www.w3.org/2000/svg" p-id="7744" xmlns:xlink="http://www.w3.org/1999/xlink" width="200" height="200"><defs><style type="text/css"></style></defs><path d="M512 64.384A447.808 447.808 0 0 0 64.384 512 447.808 447.808 0 0 0 512 959.616 447.808 447.808 0 0 0 959.616 512 447.872 447.872 0 0 0 512 64.384z m0 831.936A384.256 384.256 0 0 1 127.68 512 384.256 384.256 0 0 1 512 127.68 384.256 384.256 0 0 1 896.32 512 384.256 384.256 0 0 1 512 896.32z m229.12-181.248a232.32 232.32 0 0 0-131.2-153.6 171.648 171.648 0 0 0 79.552-144.896 172.16 172.16 0 0 0-171.968-171.968 172.16 172.16 0 0 0-172.032 171.968c0 61.248 31.616 114.816 79.616 144.896a230.592 230.592 0 0 0-131.712 153.6 30.72 30.72 0 0 0 21.952 37.312 30.528 30.528 0 0 0 37.312-22.016 169.856 169.856 0 0 1 328.768 0 30.656 30.656 0 0 0 37.312 21.952 30.08 30.08 0 0 0 22.4-37.248zM517.632 305.792c61.184 0 110.72 49.536 110.72 110.72s-49.536 110.72-110.72 110.72c-61.248 0-110.72-49.536-110.72-110.72s49.472-110.72 110.72-110.72z" fill="#B2B2B2" p-id="7745"></path></svg>