<?xml version="1.0" standalone="no"?><!DOCTYPE svg PUBLIC "-//W3C//DTD SVG 1.1//EN" "http://www.w3.org/Graphics/SVG/1.1/DTD/svg11.dtd"><svg t="1604982655149" class="icon" viewBox="0 0 1024 1024" version="1.1" xmlns="http://www.w3.org/2000/svg" p-id="36628" xmlns:xlink="http://www.w3.org/1999/xlink" width="200" height="200"><defs><style type="text/css"></style></defs><path d="M812.8 192.064a19.2 19.2 0 0 1 19.2 19.2v527.68a19.2 19.2 0 0 1-19.2 19.2h-177.76a6.4 6.4 0 0 0-4.608 1.984l-86.976 89.44a19.2 19.2 0 0 1-27.744 0L428.8 760.128a6.4 6.4 0 0 0-4.608-1.984H211.2a19.2 19.2 0 0 1-19.2-19.2V211.264a19.2 19.2 0 0 1 19.2-19.2h601.6z m-569.6 44.8a6.4 6.4 0 0 0-6.4 6.4v463.68c0 3.52 2.88 6.4 6.4 6.4h200.128a6.4 6.4 0 0 1 4.64 1.984l11.232 11.776 70.4 72 70.4-72 11.2-11.776a6.4 6.4 0 0 1 4.672-1.984H780.8a6.4 6.4 0 0 0 6.4-6.4V243.264a6.4 6.4 0 0 0-6.4-6.4H243.2z m205.024 131.52a6.4 6.4 0 0 1 5.216 2.72l118.72 167.52v-163.84c0-3.52 2.88-6.4 6.4-6.4h38.72c3.52 0 6.4 2.88 6.4 6.4v228.8a6.4 6.4 0 0 1-6.4 6.4h-40.224a6.4 6.4 0 0 1-5.216-2.656l-120-168.224v164.48a6.4 6.4 0 0 1-6.4 6.4H406.4a6.4 6.4 0 0 1-6.4-6.4v-228.8c0-3.52 2.88-6.4 6.4-6.4h41.824z" fill="#B2B2B2" p-id="36629"></path></svg>